<svg width="34" height="35" viewBox="0 0 34 35" fill="none" xmlns="http://www.w3.org/2000/svg">
<path d="M2 10C2 7.19974 2 5.79961 2.54497 4.73005C3.02433 3.78924 3.78924 3.02433 4.73005 2.54497C5.79961 2 7.19974 2 10 2H24C26.8003 2 28.2004 2 29.27 2.54497C30.2108 3.02433 30.9757 3.78924 31.455 4.73005C32 5.79961 32 7.19974 32 10V19C32 21.8003 32 23.2004 31.455 24.27C30.9757 25.2108 30.2108 25.9757 29.27 26.455C28.2004 27 26.8003 27 24 27H19.8062C18.7662 27 18.2461 27 17.7487 27.1021C17.3074 27.1927 16.8803 27.3425 16.4791 27.5474C16.0269 27.7784 15.6209 28.1033 14.8087 28.7531L10.8329 31.9337C10.1395 32.4884 9.79271 32.7658 9.5009 32.7661C9.24712 32.7664 9.00704 32.651 8.84871 32.4527C8.66667 32.2246 8.66667 31.7806 8.66667 30.8925V27C7.11671 27 6.34174 27 5.7059 26.8296C3.98044 26.3673 2.63271 25.0196 2.17037 23.2941C2 22.6583 2 21.8833 2 20.3333V10Z" stroke="#D65151" stroke-width="3" stroke-linecap="round" stroke-linejoin="round"/>
<path fill-rule="evenodd" clip-rule="evenodd" d="M16.9949 9.83209C15.4953 8.10067 12.9948 7.63492 11.116 9.22038C9.23723 10.8058 8.97273 13.4567 10.4481 15.3318C11.3622 16.4935 13.6565 18.6153 15.2699 20.0616C15.8626 20.5929 16.1589 20.8585 16.5145 20.9655C16.8196 21.0574 17.1701 21.0574 17.4752 20.9655C17.8308 20.8585 18.1271 20.5929 18.7198 20.0616C20.3332 18.6152 22.6275 16.4935 23.5416 15.3318C25.017 13.4567 24.7848 10.7892 22.8737 9.22038C20.9626 7.6516 18.4944 8.10067 16.9949 9.83209Z" stroke="#D65151" stroke-width="3" stroke-linecap="round" stroke-linejoin="round"/>
</svg>
