<svg width="40" height="40" viewBox="0 0 40 40" fill="none" xmlns="http://www.w3.org/2000/svg">
<path d="M39.7554 32.4317L27.4479 11.692C27.303 11.4607 27.109 11.2704 26.882 11.1373C26.6551 11.0042 26.4019 10.9322 26.1439 10.9272C25.8846 10.929 25.6299 11.0017 25.4035 11.1386C25.1771 11.2756 24.9863 11.4723 24.8489 11.7105L18.0122 23.5621C17.9051 23.7477 17.8328 23.9544 17.7995 24.1703C17.7661 24.3862 17.7724 24.6071 17.8178 24.8204C17.8633 25.0337 17.9471 25.2352 18.0644 25.4134C18.1817 25.5916 18.3303 25.743 18.5017 25.859C18.673 25.975 18.8638 26.0533 19.0631 26.0894C19.2623 26.1256 19.4662 26.1188 19.6631 26.0696C20.0607 25.9701 20.4056 25.7037 20.6219 25.3288L26.1716 15.7072L35.6435 31.6667H4.31425L16.923 9.8114L19.0368 13.4767C19.1421 13.6661 19.2812 13.8309 19.4459 13.9615C19.6106 14.0921 19.7977 14.1859 19.9962 14.2374C20.1947 14.2889 20.4007 14.2971 20.6022 14.2615C20.8036 14.226 20.9965 14.1473 21.1697 14.0301C21.3428 13.913 21.4926 13.7597 21.6105 13.5791C21.7284 13.3986 21.8119 13.1945 21.8563 12.9786C21.9006 12.7627 21.9048 12.5395 21.8687 12.3218C21.8326 12.1042 21.7569 11.8965 21.646 11.7109L18.2277 5.7836C18.0895 5.54382 17.8972 5.34609 17.6689 5.20901C17.4407 5.07192 17.184 5 16.923 5C16.662 5 16.4053 5.07192 16.1771 5.20901C15.9488 5.34609 15.7565 5.54382 15.6182 5.7836L0.233847 32.45C0.0882915 32.7023 0.00773076 32.9922 0.000529152 33.2896C-0.00667246 33.5871 0.0597475 33.8811 0.192893 34.1414C0.326038 34.4016 0.521054 34.6184 0.757693 34.7694C0.994331 34.9204 1.26396 35 1.5386 35H38.4611C38.7375 35.0001 39.0088 34.9195 39.2464 34.7668C39.4841 34.614 39.6794 34.3948 39.8119 34.132C39.9443 33.8692 40.0089 33.5726 39.999 33.2734C39.9891 32.9743 39.9049 32.6835 39.7554 32.4317Z" fill="#D65151"/>
</svg>
