<svg width="40" height="40" viewBox="0 0 40 40" fill="none" xmlns="http://www.w3.org/2000/svg">
<path d="M26.2033 10.9165H9.86719V13.8207H26.2033V10.9165Z" fill="#D65151"/>
<path d="M26.2033 16.7256H9.86719V19.6298H26.2033V16.7256Z" fill="#D65151"/>
<path d="M28.4479 1.39697H7.68928C5.28722 1.39697 3.33301 3.35119 3.33301 5.75325V34.2144C3.33301 36.6164 5.28722 38.5707 7.68928 38.5707H15.0224V35.6665H7.68928C6.88857 35.6665 6.23719 35.0151 6.23719 34.2144V5.75325C6.23719 4.95254 6.88857 4.30115 7.68928 4.30115H28.4479C29.2516 4.30115 29.9059 4.95217 29.9064 5.75157V16.7166H32.8105V5.7507C32.8092 3.35003 30.8522 1.39697 28.4479 1.39697Z" fill="#D65151"/>
<path d="M30.4824 19.5869L20.7257 29.6194C20.1681 30.1791 19.7422 30.871 19.4938 31.621L19.4718 31.6875L17.8994 38.6021L24.8324 37.0499L24.901 37.0272C25.6547 36.7777 26.3499 36.3493 26.9114 35.7882L36.6669 25.7574L30.4824 19.5869ZM24.8522 33.7403C24.7979 33.7941 24.7407 33.8451 24.681 33.893L22.6297 31.8403C22.6789 31.7793 22.7314 31.7208 22.7868 31.6654L30.5135 23.7205L32.5858 25.7882L24.8522 33.7403Z" fill="#D65151"/>
<path d="M20.7579 22.5259H9.86719V25.4301H20.7579V22.5259Z" fill="#D65151"/>
</svg>
