<svg width="32" height="32" viewBox="0 0 32 32" fill="none" xmlns="http://www.w3.org/2000/svg">
<g clip-path="url(#clip0_1_5582)">
<path d="M16 32C7.17733 32 0 24.8227 0 16C0 7.17733 7.17733 0 16 0C24.8227 0 32 7.17733 32 16C32 24.8227 24.8227 32 16 32ZM16 2.66667C8.648 2.66667 2.66667 8.648 2.66667 16C2.66667 23.352 8.648 29.3333 16 29.3333C23.352 29.3333 29.3333 23.352 29.3333 16C29.3333 8.648 23.352 2.66667 16 2.66667ZM19.3333 21.7733C19.972 21.4053 20.1907 20.5893 19.8213 19.952L17.3333 15.6427V8C17.3333 7.264 16.7373 6.66667 16 6.66667C15.2627 6.66667 14.6667 7.264 14.6667 8V16C14.6667 16.2347 14.728 16.464 14.8453 16.6667L17.512 21.2853C17.76 21.7133 18.2067 21.952 18.668 21.952C18.8947 21.952 19.124 21.8947 19.3333 21.7733Z" fill="#FFC600"/>
</g>
<defs>
<clipPath id="clip0_1_5582">
<rect width="32" height="32" fill="white"/>
</clipPath>
</defs>
</svg>
