<svg width="26" height="30" viewBox="0 0 26 30" fill="none" xmlns="http://www.w3.org/2000/svg">
<path d="M17.0875 17.05L14.625 20L17.0875 22.95C17.525 23.475 17.4625 24.2625 16.925 24.7125C16.6875 24.9125 16.4125 25 16.125 25C15.7625 25 15.4125 24.85 15.1625 24.55L13 21.95L10.8375 24.55C10.5875 24.85 10.2375 25 9.875 25C9.5875 25 9.3125 24.9 9.075 24.7125C8.55 24.275 8.475 23.4875 8.9125 22.95L11.375 20L8.9125 17.05C8.475 16.525 8.5375 15.7375 9.075 15.2875C9.6125 14.85 10.3875 14.9125 10.8375 15.45L13 18.05L15.1625 15.45C15.6 14.925 16.3875 14.85 16.925 15.2875C17.45 15.725 17.525 16.5125 17.0875 17.05ZM25.5 13.1125V23.75C25.5 27.2 22.7 30 19.25 30H6.75C3.3 30 0.5 27.2 0.5 23.75V6.25C0.5 2.8 3.3 0 6.75 0H12.3875C14.725 0 16.925 0.9125 18.575 2.5625L22.925 6.925C24.575 8.575 25.4875 10.775 25.4875 13.1125H25.5ZM16.8125 4.325C16.4125 3.925 15.975 3.5875 15.5 3.3125V8.75C15.5 9.4375 16.0625 10 16.75 10H22.175C21.9 9.525 21.5625 9.0875 21.1625 8.6875L16.8125 4.325ZM23 13.1C23 12.9 23 12.6875 22.975 12.4875H16.75C14.6875 12.4875 13 10.8 13 8.7375V2.525C12.8 2.5 12.6 2.5 12.3875 2.5H6.75C4.6875 2.5 3 4.1875 3 6.25V23.75C3 25.8125 4.6875 27.5 6.75 27.5H19.25C21.3125 27.5 23 25.8125 23 23.75V13.1125V13.1Z" fill="#2A79B2"/>
</svg>
