<svg width="26" height="30" viewBox="0 0 26 30" fill="none" xmlns="http://www.w3.org/2000/svg">
<path d="M22.9375 6.925L18.575 2.5625C16.925 0.9125 14.725 0 12.3875 0H6.75C3.3 0 0.5 2.8 0.5 6.25V23.75C0.5 27.2 3.3 30 6.75 30H19.25C22.7 30 25.5 27.2 25.5 23.75V13.1125C25.5 10.775 24.5875 8.575 22.9375 6.925ZM21.175 8.6875C21.575 9.0875 21.9125 9.525 22.1875 10H16.7625C16.075 10 15.5125 9.4375 15.5125 8.75V3.325C15.9875 3.6 16.425 3.9375 16.825 4.3375L21.1875 8.7L21.175 8.6875ZM23 23.75C23 25.8125 21.3125 27.5 19.25 27.5H6.75C4.6875 27.5 3 25.8125 3 23.75V6.25C3 4.1875 4.6875 2.5 6.75 2.5H12.3875C12.5875 2.5 12.8 2.5 13 2.525V8.75C13 10.8125 14.6875 12.5 16.75 12.5H22.975C23 12.7 23 12.9 23 13.1125V23.75ZM6.8625 16.25H5.5C4.8125 16.25 4.25 16.8125 4.25 17.5V23.05C4.25 23.4875 4.6 23.825 5.025 23.825C5.45 23.825 5.8 23.475 5.8 23.05V21.525H6.85C8.325 21.525 9.525 20.3375 9.525 18.8875C9.525 17.4375 8.325 16.25 6.85 16.25H6.8625ZM6.8625 19.9625H5.825V17.8125H6.875C7.475 17.8125 7.9875 18.3 7.9875 18.8875C7.9875 19.475 7.475 19.9625 6.875 19.9625H6.8625ZM21.775 17.0375C21.775 17.475 21.425 17.8125 21 17.8125H18.8875V19.2375H20.4375C20.875 19.2375 21.2125 19.5875 21.2125 20.0125C21.2125 20.4375 20.8625 20.7875 20.4375 20.7875H18.8875V23.0375C18.8875 23.475 18.5375 23.8125 18.1125 23.8125C17.6875 23.8125 17.3375 23.4625 17.3375 23.0375V17.025C17.3375 16.5875 17.6875 16.25 18.1125 16.25H21C21.4375 16.25 21.775 16.6 21.775 17.025V17.0375ZM13.1125 16.2625H11.75C11.0625 16.2625 10.5 16.825 10.5 17.5125V23.0625C10.5 23.5 10.85 23.7625 11.275 23.7625C11.7 23.7625 13.1 23.7625 13.1 23.7625C14.575 23.7625 15.775 22.575 15.775 21.125V18.9C15.775 17.45 14.575 16.2625 13.1 16.2625H13.1125ZM14.225 21.125C14.225 21.7125 13.7125 22.2 13.1125 22.2H12.075V17.825H13.125C13.725 17.825 14.2375 18.3125 14.2375 18.9V21.125H14.225Z" fill="#2A79B2"/>
</svg>
