<svg width="24" height="24" viewBox="0 0 24 24" fill="none" xmlns="http://www.w3.org/2000/svg">
<g clip-path="url(#clip0_6001_33409)">
<path d="M15.27 13.64L13.3 16L15.27 18.36C15.62 18.78 15.57 19.41 15.14 19.77C14.95 19.93 14.73 20 14.5 20C14.21 20 13.93 19.88 13.73 19.64L12 17.56L10.27 19.64C10.07 19.88 9.79 20 9.5 20C9.27 20 9.05 19.92 8.86 19.77C8.44 19.42 8.38 18.79 8.73 18.36L10.7 16L8.73 13.64C8.38 13.22 8.43 12.59 8.86 12.23C9.29 11.88 9.91 11.93 10.27 12.36L12 14.44L13.73 12.36C14.08 11.94 14.71 11.88 15.14 12.23C15.56 12.58 15.62 13.21 15.27 13.64ZM22 10.49V19C22 21.76 19.76 24 17 24H7C4.24 24 2 21.76 2 19V5C2 2.24 4.24 0 7 0H11.51C13.38 0 15.14 0.73 16.46 2.05L19.94 5.54C21.26 6.86 21.99 8.62 21.99 10.49H22ZM15.05 3.46C14.73 3.14 14.38 2.87 14 2.65V7C14 7.55 14.45 8 15 8H19.34C19.12 7.62 18.85 7.27 18.53 6.95L15.05 3.46ZM20 10.48C20 10.32 20 10.15 19.98 9.99H15C13.35 9.99 12 8.64 12 6.99V2.02C11.84 2 11.68 2 11.51 2H7C5.35 2 4 3.35 4 5V19C4 20.65 5.35 22 7 22H17C18.65 22 20 20.65 20 19V10.49V10.48Z" fill="#2A79B2"/>
</g>
<defs>
<clipPath id="clip0_6001_33409">
<rect width="24" height="24" fill="white"/>
</clipPath>
</defs>
</svg>
