<svg width="24" height="24" viewBox="0 0 24 24" fill="none" xmlns="http://www.w3.org/2000/svg">
<path fill-rule="evenodd" clip-rule="evenodd" d="M12.1031 3.61566C14.3905 1.32831 18.099 1.32831 20.3864 3.61566C22.6737 5.90302 22.6737 9.61156 20.3864 11.8989L18.9722 13.3131C18.6374 13.6479 18.0947 13.6479 17.76 13.3131C17.4253 12.9784 17.4253 12.4357 17.76 12.1009L19.1742 10.6867C20.7921 9.06885 20.7921 6.44573 19.1742 4.82785C17.5563 3.20996 14.9332 3.20996 13.3153 4.82785L11.9011 6.24206C11.5664 6.5768 11.0237 6.5768 10.6889 6.24206C10.3542 5.90733 10.3542 5.36461 10.6889 5.02988L12.1031 3.61566ZM16.1082 7.89382C16.443 8.22855 16.443 8.77127 16.1082 9.106L9.10822 16.106C8.77348 16.4407 8.23077 16.4407 7.89604 16.106C7.5613 15.7713 7.5613 15.2286 7.89604 14.8938L14.896 7.89382C15.2308 7.55908 15.7735 7.55908 16.1082 7.89382ZM6.24426 10.6867C6.57899 11.0215 6.57899 11.5642 6.24426 11.8989L4.83004 13.3131C3.21216 14.931 3.21216 17.5541 4.83004 19.172C6.44793 20.7899 9.07104 20.7899 10.6889 19.172L12.1031 17.7578C12.4379 17.4231 12.9806 17.4231 13.3153 17.7578C13.6501 18.0925 13.6501 18.6353 13.3153 18.97L11.9011 20.3842C9.61376 22.6716 5.90522 22.6716 3.61786 20.3842C1.3305 18.0968 1.3305 14.3883 3.61786 12.1009L5.03207 10.6867C5.36681 10.352 5.90952 10.352 6.24426 10.6867Z" fill="#2A79B2"/>
</svg>
