<svg width="130" height="130" viewBox="0 0 130 130" fill="none" xmlns="http://www.w3.org/2000/svg">
<path d="M0 68.2528C0.46694 68.5372 0.393099 68.9267 0.204151 69.3359C0.141168 69.4409 0.0738417 69.4496 0 69.3468C0 68.9814 0 68.6182 0 68.2528Z" fill="white"/>
<path fill-rule="evenodd" clip-rule="evenodd" d="M0.851351 68.266C0.953426 67.7168 0.679778 67.2901 0 67.3776V68.255C0.23313 68.5895 0.184379 68.9497 0.135697 69.3095C0.134367 69.3193 0.133037 69.3291 0.131713 69.339C0.0874128 69.3412 0.0437064 69.344 0 69.3469C0 69.6401 0 69.9311 0.00217186 70.2243L0.243243 70.1849L0.243243 70.1848C1.11651 69.9854 1.01022 69.4504 0.905576 68.9237C0.859798 68.6932 0.814337 68.4644 0.851351 68.266Z" fill="white"/>
<path d="M65.7688 0.162739C65.7688 1.04012 65.7688 1.86499 65.7688 2.8824C66.6528 2.04878 66.6376 0.921969 67.25 0.186807C67.6583 -0.0276157 68.0362 0.0161439 68.4771 0.145235C68.4771 2.37479 68.4771 4.57371 68.4771 6.72669C67.958 7.03082 67.5562 6.98487 67.0763 6.74638C67.0763 5.84055 67.0763 4.91285 67.0763 3.74884C66.3118 4.80126 66.2227 5.94995 65.5734 6.73544C65.1803 6.97393 64.8371 6.94986 64.3094 6.7245C64.1725 4.60434 64.3745 2.4098 64.368 0.239318C64.8111 -0.108571 65.2172 -0.0254278 65.7688 0.162739Z" fill="white"/>
<path d="M60.4284 0.33067C60.4829 1.20636 60.5341 2.02963 60.5973 3.04508C61.4277 2.15818 61.3426 1.03448 61.9082 0.262707C62.3024 0.0233417 62.6823 0.0435486 63.1303 0.145011C63.2688 2.37026 63.4053 4.56494 63.539 6.71376C63.0399 7.04954 62.636 7.02863 62.1421 6.82041C62.0859 5.91633 62.0283 4.99042 61.956 3.82866C61.2583 4.92652 61.2408 6.07853 60.6415 6.90282C60.2639 7.16527 59.92 7.16255 59.3792 6.9704C59.111 4.86284 59.1763 2.65998 59.035 0.494096C59.4556 0.119364 59.8661 0.177125 60.4284 0.33067Z" fill="white"/>
<path d="M1.48921 69.4037C2.37097 69.3227 3.26142 69.2396 4.14969 69.1586C4.16272 69.1018 4.17792 69.0449 4.19095 68.988C3.24621 68.6488 2.2993 68.3097 1.44143 68.0034C1.13521 67.5308 1.23946 67.1391 1.26117 66.6315C3.45688 66.358 5.62218 66.2464 7.74187 66.1545C8.03289 66.6271 8.00031 67.0188 7.93082 67.463C7.0382 67.8349 6.0131 67.4345 5.00104 67.9356C6.10866 68.3316 7.11639 68.6904 8.07416 69.0339C8.25442 69.5131 8.28482 69.8938 8.08719 70.3402C5.93492 70.6268 3.75442 70.7099 1.59998 70.7602C1.28724 70.2964 1.32198 69.8872 1.48921 69.4037Z" fill="white"/>
<path d="M115.987 29.0857C116.966 29.0551 117.87 28.6525 118.825 28.4775C119.186 28.7466 119.44 29.0835 119.635 29.6524C117.874 30.9302 116.089 32.2277 114.399 33.4529C113.817 33.2298 113.776 32.8228 113.519 32.569C113.878 31.7179 114.731 31.5188 115.298 30.9936C115.396 30.963 115.468 30.8996 115.515 30.8077L115.522 30.8033C115.576 30.7595 115.624 30.7092 115.659 30.6479C115.657 30.6479 115.646 30.5451 115.646 30.5451C115.646 30.5451 115.546 30.5188 115.541 30.5188C115.457 30.5298 115.381 30.5517 115.311 30.5911L115.209 30.5889L115.111 30.6129C114.918 30.7902 114.631 30.637 114.434 30.8011C113.841 30.9324 113.248 31.0637 112.694 31.1862C112.216 30.9499 112.014 30.5889 111.93 29.9784C113.609 28.751 115.339 27.4841 117.033 26.2435C117.605 26.3836 117.761 26.784 117.922 27.1931C117.555 28.1252 116.312 28.1427 116.002 29.1032L115.987 29.0857Z" fill="white"/>
<path d="M109.87 24.2437C109.44 24.4056 108.988 24.526 108.582 24.736C107.928 25.0708 107.364 25.0401 106.858 24.4822C106.551 23.944 106.912 23.6617 107.275 23.3817L107.281 23.3773C107.361 23.316 107.431 23.246 107.494 23.165L107.498 23.1585C107.583 23.1016 107.65 23.025 107.722 22.9506C107.798 22.8806 107.867 22.8018 107.948 22.7362L107.943 22.7406C108.011 22.6574 108.082 22.5809 108.174 22.524L108.165 22.5305C108.224 22.4386 108.297 22.3621 108.393 22.3074L108.384 22.3161C108.434 22.2177 108.523 22.1542 108.599 22.0798C109.67 21.3512 110.38 20.1981 111.486 19.5417C111.944 19.6905 112.113 20.0515 112.363 20.325C112.05 21.314 110.984 21.5678 110.569 22.4977C111.668 22.3752 112.506 21.5941 113.54 21.5985C113.903 21.7844 114.129 22.0492 114.303 22.5305C112.86 24.1037 111.262 25.5806 109.69 27.0334C109.173 26.9087 108.96 26.5805 108.706 26.226C108.923 25.5806 109.527 25.2458 109.92 24.747C110.172 24.5019 110.391 24.2284 110.604 23.9593C110.66 23.9221 110.682 23.8674 110.667 23.8039C110.63 23.8565 110.591 23.9111 110.552 23.9658C110.385 24.2153 110.091 24.1387 109.87 24.2437Z" fill="white"/>
<path d="M105.949 113.161C106.109 113.754 106.268 114.345 106.442 114.986C106.248 115.314 105.99 115.644 105.406 115.863C104.007 114.244 102.58 112.594 101.184 110.978C101.32 110.393 101.668 110.177 102.133 110.008C102.967 110.472 103.334 111.413 104.055 111.995C104.111 112.004 104.142 112.236 104.226 112.017C104.131 110.923 103.332 110.03 103.332 108.927C103.553 108.534 103.864 108.313 104.42 108.179C105.805 109.794 107.228 111.452 108.613 113.067C108.368 113.601 108.005 113.772 107.647 113.968C107.015 113.702 106.776 113.015 106.248 112.643C106.153 112.599 106.072 112.522 105.942 112.483C105.86 112.713 105.855 112.936 105.949 113.161Z" fill="white"/>
<path d="M107.302 18.822C108.119 18.4544 108.938 18.0868 109.702 17.7433C110.223 17.9271 110.484 18.2618 110.712 18.6951C109.858 19.6643 109.003 20.638 108.145 21.6117C108.082 21.7035 108.015 21.7889 107.91 21.837L107.919 21.8261C107.869 21.9289 107.793 22.0055 107.691 22.0536L107.7 22.0449C107.658 22.1499 107.576 22.2199 107.491 22.2877L107.496 22.2812C107.437 22.3665 107.354 22.43 107.302 22.5197L107.296 22.5284C107.118 22.7778 106.898 22.9901 106.664 23.1826C105.886 23.7668 105.639 23.0776 105.252 22.6203C105.606 21.9508 106.171 21.5044 106.631 20.9749C106.72 20.9181 106.783 20.8393 106.84 20.7518C106.95 20.1676 106.62 20.4805 106.416 20.5417C105.671 20.8962 104.924 21.2506 104.233 21.5766C103.73 21.371 103.402 21.1106 103.176 20.5767C104.642 19.0014 106.132 17.402 107.606 15.8179C108.128 15.9426 108.408 16.2533 108.636 16.7149C108.253 17.4348 107.578 17.938 107.063 18.5704C106.987 18.8045 107.048 18.9073 107.302 18.822Z" fill="white"/>
<path d="M1.41581 61.9907C1.26161 61.47 1.25292 61.1177 1.48531 60.6517C3.21407 60.5489 4.97976 61.0039 6.76064 60.9886C6.99954 60.5554 6.88878 60.166 6.94308 59.689C5.14482 59.5205 3.43125 59.3608 1.71769 59.2011C1.45273 58.7131 1.47879 58.2755 1.80456 57.7592C3.45732 57.9014 5.14264 58.0458 7.10162 58.2143C7.2189 58.2318 7.09728 57.6717 7.44042 57.6191C8.11369 57.6717 8.78695 57.7263 9.41026 57.7745C9.68825 58.2493 9.64264 58.6234 9.46238 58.9647C9.15181 59.2886 8.72179 59.0151 8.35693 59.2886C8.13758 60.2972 8.25268 61.4087 7.86175 62.5749C5.71383 62.3802 3.57242 62.1855 1.41581 61.9907Z" fill="white"/>
<path d="M44.1211 3.78395C45.3569 3.17131 46.5644 2.87156 47.8762 2.52148C48.5581 4.65258 49.2162 6.70928 49.8503 8.6916C49.5854 9.2911 49.1054 9.19483 48.6298 9.37425C47.8458 7.7267 47.5765 5.95662 46.9249 4.38783C46.5427 4.10777 46.2668 4.35283 45.9476 4.45129C45.9411 4.55412 45.9063 4.66571 45.9302 4.75979C46.243 5.95224 46.6252 7.12938 46.8641 8.33495C47.116 9.61274 46.5427 10.2691 45.1983 10.4267C44.84 10.221 44.8877 9.81184 44.7574 9.55804C44.7661 9.08106 45.2917 9.13357 45.4112 8.57563C45.2135 7.09437 44.5272 5.52558 44.1211 3.78395Z" fill="white"/>
<path d="M3.71251 46.9309C5.91039 47.5085 7.99533 48.0555 10.0455 48.5938C10.2671 49.0773 10.0195 49.4252 9.90653 49.8365C8.91401 50.0466 8.03442 49.4055 7.08317 49.4033C6.82472 49.7228 6.72265 50.0553 6.75957 50.5455C7.63264 50.8211 8.54263 51.11 9.42873 51.39C9.48737 51.8998 9.3614 52.2586 9.01391 52.6962C6.95286 52.1777 4.84186 51.6482 2.8199 51.1406C2.63964 50.5892 2.80904 50.2654 2.96324 49.9044C3.75378 49.5521 4.47265 50.342 5.29794 50.0663C5.45648 49.7381 5.55638 49.3727 5.44779 48.9198C4.80494 48.7469 4.15339 48.5719 3.54963 48.41C3.25643 47.8761 3.59306 47.5129 3.71251 46.9309Z" fill="white"/>
<path d="M119.829 44.1893C119.304 43.8873 119.251 43.4782 119.069 43.0975C119.757 42.3295 120.783 42.2835 121.547 41.7147C121.721 41.2924 121.447 40.9883 121.195 40.6469C120.205 40.6032 119.523 41.4674 118.565 41.579C118.139 41.3449 118.103 40.9095 117.918 40.3734C119.929 39.4304 121.903 38.5049 123.86 37.5859C124.284 37.9754 124.444 38.3539 124.466 38.8834C123.841 39.205 123.213 39.5267 122.633 39.8242C122.563 40.3231 122.759 40.6119 123.048 40.9226C123.756 40.8767 124.336 40.3756 125.037 40.2115C125.452 40.4675 125.513 40.9007 125.739 41.4215C123.721 42.3667 121.773 43.2791 119.829 44.1893Z" fill="white"/>
<path d="M107.944 108.474C108.389 108.245 108.66 107.973 108.847 107.424C108.202 106.844 107.512 106.223 106.893 105.667C106.992 105.057 107.381 104.88 107.7 104.503C109.442 105.91 110.963 107.499 112.528 108.991C112.394 109.531 112.122 109.84 111.694 110.061C110.982 109.779 110.65 108.98 109.985 108.68C109.551 108.838 109.349 109.12 109.221 109.47C109.401 110.249 110.359 110.376 110.578 111.129C110.53 111.619 110.22 111.881 109.653 112.111C108.098 110.641 106.504 109.135 104.934 107.652C105.127 107.1 105.431 106.818 105.896 106.65C106.654 107.127 107.236 107.825 107.944 108.474Z" fill="white"/>
<path d="M91.8326 13.0718C91.2505 13.0325 90.9248 12.8312 90.5664 12.4111C91.5263 10.5272 92.508 8.60397 93.5527 6.55383C94.8796 7.06582 96.0893 7.69158 97.3403 8.47051C96.3087 10.4988 95.3444 12.3957 94.4236 14.203C93.7916 14.4109 93.481 14.1002 93.0336 13.7589C93.8285 12.166 94.6147 10.5885 95.3835 9.04813C95.1316 8.62804 94.7884 8.53833 94.3128 8.37424C93.4853 9.94302 92.6644 11.4987 91.8326 13.0718Z" fill="white"/>
<path d="M9.30112 78.2366C9.60083 78.6654 9.76371 79.0177 9.68987 79.4881C8.91236 80.0942 7.8308 79.9191 7.00986 80.418C6.92298 80.8293 7.14668 81.1378 7.23138 81.5229C8.25648 81.6695 9.10566 80.9562 10.1286 80.9912C10.2502 81.3829 10.3653 81.7505 10.5108 82.2187C8.3781 82.9998 6.23235 83.4155 4.14089 83.9538C3.80208 83.5709 3.71304 83.1989 3.69567 82.7591C4.27554 82.2143 5.14861 82.3894 5.81101 81.8949C5.73934 81.5798 5.66116 81.2407 5.57646 80.8709C4.80329 80.6959 4.16695 81.2691 3.42419 81.1882C3.01806 80.9081 3.00937 80.4814 3.04412 79.9432C5.06391 79.2627 7.15319 78.7551 9.30112 78.2366Z" fill="white"/>
<path d="M129.143 54.0397C129.347 55.5253 129.521 56.8097 129.719 58.2494C127.503 58.571 125.356 58.8817 123.297 59.1792C122.801 58.7307 122.88 58.3019 122.906 57.7746C124.663 57.5164 126.389 57.2648 128.059 57.0197C128.242 56.5296 128.172 56.1883 127.979 55.7179C126.274 55.941 124.548 56.1664 122.856 56.3874C122.506 56.0067 122.523 55.6063 122.504 55.0046C124.658 54.6917 126.826 54.3744 129.143 54.0397Z" fill="white"/>
<path d="M62.8431 123.663C63.3861 123.423 63.7292 123.403 64.0919 123.613C64.472 124.333 64.0029 125.193 64.4459 126.018C65.6882 125.762 65.1061 124.626 65.4601 123.898C65.8402 123.445 66.3658 123.366 67.0912 123.591C67.1563 124.609 66.3571 125.405 66.4071 126.547C66.9891 127.427 67.0738 127.987 66.8067 129.799C66.4244 130.09 66.0226 130.035 65.5948 129.827C65.2669 129.112 65.6534 128.304 65.3233 127.576C65.054 127.271 64.7196 127.28 64.346 127.387C64.0745 128.21 64.4177 129.074 64.1267 129.84C63.7357 130.044 63.3904 130.017 62.9104 129.869C62.741 127.821 62.867 125.742 62.8431 123.663Z" fill="white"/>
<path d="M13.194 94.0578C14.1105 94.0796 14.2234 92.9791 14.9748 92.769C15.2572 92.9703 15.3636 93.2745 15.457 93.5239C15.3962 93.9899 15.0139 94.1562 14.825 94.4779C14.9358 94.9811 15.2159 95.3902 15.5569 95.8125C15.9044 95.7819 16.254 95.7513 16.595 95.7206C16.8947 95.9701 17.1423 96.2261 17.2096 96.8496C15.0747 97.4842 12.9008 98.1318 10.7746 98.7619C10.2881 98.2981 10.1143 97.8299 9.89062 97.2654C10.894 96.1167 12.0038 95.0467 13.194 94.0578Z" fill="white"/>
<path d="M17.9251 108.492C16.9347 107.599 16.2462 106.577 15.4883 105.641C15.6229 105.214 15.9596 105.072 16.3461 104.796C16.8674 105.357 17.3756 105.904 17.886 106.451C18.2704 106.324 18.4854 106.035 18.7829 105.729C18.4724 105.267 18.1596 104.801 17.8556 104.352C18.0293 103.937 18.303 103.744 18.7091 103.678C19.252 103.851 19.4323 104.451 19.921 104.807C20.2793 104.532 20.6463 104.252 21.1046 103.897C20.6094 103.247 20.1381 102.63 19.6799 102.031C19.7668 101.532 20.0752 101.318 20.5768 101.162C21.3413 102.077 22.1253 103.015 23.0657 104.138C21.3565 105.584 19.6907 106.995 17.9251 108.492Z" fill="white"/>
<path d="M101.437 10.9735C101.491 11.5184 101.324 11.7853 101.066 12.0369C100.229 12.1069 99.8081 11.258 99.0589 11.0786C98.6549 11.2427 98.5029 11.5971 98.3726 12.05C98.7961 12.3498 99.2261 12.6561 99.6366 12.9449C99.7386 13.4744 99.4368 13.7238 99.1675 13.9733C98.5398 13.9317 98.1684 13.4525 97.658 13.2906C97.202 13.5488 97.0499 14.0017 96.7785 14.3999C97.2715 15.1329 98.1641 15.2598 98.6506 15.8462C98.7548 16.321 98.4051 16.5157 98.1923 16.973C97.0434 16.2663 95.9879 15.6143 94.7695 14.8638C95.9792 12.923 97.152 11.0392 98.3878 9.05469C99.4715 9.73515 100.466 10.3609 101.437 10.9735Z" fill="white"/>
<path d="M26.1906 116.345C25.1394 115.489 24.2229 114.745 23.3477 114.034C23.4063 113.461 23.6669 113.205 24.1295 113.041C24.6507 113.437 25.1937 113.848 25.7475 114.268C26.184 114.168 26.3513 113.804 26.6054 113.347C26.1775 113.006 25.7301 112.651 25.3218 112.325C25.5303 111.831 25.7736 111.586 26.1341 111.35C26.5685 111.649 27.0093 111.951 27.4546 112.258C27.8933 112.01 28.1409 111.614 28.4036 111.225C28.0561 110.431 27.1158 110.251 26.7552 109.505C26.8095 109.116 26.9941 108.838 27.5371 108.63C28.4362 109.367 29.3983 110.155 30.4908 111.048C29.0422 112.831 27.6457 114.553 26.1906 116.345Z" fill="white"/>
<path d="M5.91448 55.2802C6.37056 55.4356 6.77452 55.5909 7.23712 55.5603C7.71491 54.8973 7.46298 53.9937 7.893 53.3438C8.30348 53.1294 8.62273 53.2935 9.04624 53.4992C8.8334 54.6873 8.61839 55.8907 8.36429 57.3019C6.19247 56.8884 4.06627 56.4836 1.85536 56.0613C1.80975 54.731 2.18548 53.5648 2.41786 52.3811C2.85874 52.193 3.22577 52.287 3.65579 52.5168C3.52983 53.2344 3.40169 53.9674 3.27573 54.6873C3.63842 54.9476 3.98591 54.9695 4.34209 54.9805C4.80903 54.5713 4.58316 53.9193 4.93499 53.4292C5.23905 53.1885 5.56265 53.4204 5.8819 53.4248C6.17293 54.0681 5.74508 54.6326 5.91448 55.2802Z" fill="white"/>
<path d="M127.17 79.114C127.233 78.3767 127.513 77.7225 127.431 77.0376C127.086 76.7073 126.712 76.7138 126.297 76.8145C126.065 77.3046 126.195 77.9041 125.839 78.3548C125.463 78.5342 125.164 78.276 124.773 78.2542C124.812 77.6153 124.849 77.053 124.881 76.5257C124.412 76.2281 123.973 76.274 123.533 76.2368C122.981 76.8823 123.324 77.8056 122.859 78.4773C122.533 78.6152 122.229 78.5605 121.828 78.3898C121.767 77.1077 122.095 75.8736 122.438 74.4865C124.64 74.8803 126.751 75.2588 128.973 75.657C128.947 76.9873 128.658 78.1929 128.313 79.3722C127.865 79.451 127.526 79.4007 127.17 79.114Z" fill="white"/>
<path d="M124.237 82.9276C123.092 83.3762 122.091 83.234 121.281 82.4113C120.673 81.7943 120.877 80.3743 121.65 79.1665C122.05 79.0396 122.404 79.1446 122.73 79.4181C122.849 80.0176 122.206 80.4946 122.58 81.2801C122.762 81.6039 123.197 81.6389 123.605 81.5558C124.113 81.2363 124.083 80.6762 124.387 80.3458C124.808 80.2211 125.099 80.4224 125.41 80.6149C125.41 81.0503 125.41 81.442 125.41 81.8336C126.205 82.3194 126.205 82.3194 126.874 80.6281C127.252 80.4837 127.558 80.674 127.866 80.8359C128.009 82.1443 127.551 83.339 126.776 83.6956C126.001 84.0544 125.051 83.7766 124.237 82.9276Z" fill="white"/>
<path d="M117.505 39.111C116.773 38.5071 116.376 37.7238 116.172 36.888C116.343 36.3695 116.739 36.2754 117.086 36.0981C117.588 36.492 117.497 37.2337 118.135 37.5838C118.604 37.7851 119 37.4394 119.438 37.1943C119.547 36.6036 119.076 36.2404 118.963 35.7437C119.121 35.2645 119.534 35.1595 120.012 35.0523C120.283 35.4614 120.555 35.875 120.822 36.2776C121.875 35.9144 121.884 35.8115 121.002 34.223C121.206 33.9583 121.462 33.7745 121.79 33.7111C123.541 34.7919 123.567 36.6933 121.784 37.6144C120.47 38.2905 119.291 39.4261 117.505 39.111Z" fill="white"/>
<path d="M47.7032 120.303C48.9021 120.679 49.925 120.999 50.9349 121.316C51.1694 121.756 51.0695 122.106 50.7872 122.46C50.0814 122.543 49.5145 121.981 48.826 121.998C48.4481 122.204 48.446 122.58 48.3613 122.935C48.7261 123.344 49.3212 123.248 49.7404 123.622C49.9337 123.998 49.8034 124.342 49.5123 124.698C49.0193 124.585 48.5415 124.475 48.0333 124.359C47.6989 124.742 47.625 125.188 47.5816 125.655C48.1506 126.202 48.9954 126.007 49.5471 126.458C49.7534 126.873 49.4928 127.166 49.4298 127.552C48.1788 127.346 47.0734 126.95 45.8984 126.449C46.3306 124.364 47.0886 122.421 47.7032 120.303Z" fill="white"/>
<path d="M43.1543 118.598C43.7212 118.572 44.0383 118.771 44.2815 119.139C44.2424 120.132 43.213 120.874 43.5366 122.16C44.9309 121.832 44.6789 120.371 45.4087 119.69C45.8213 119.546 46.1601 119.714 46.5793 120.104C45.9321 122.038 44.9439 123.873 44.1751 125.722C43.6104 125.875 43.289 125.679 42.9762 125.374C42.9306 124.659 43.4975 124.116 43.5691 123.445C41.6167 122.637 41.4581 122.228 42.3464 120.274C42.6005 119.716 42.8785 119.169 43.1543 118.598Z" fill="white"/>
<path d="M11.5271 32.2977C11.21 32.6675 10.9124 33.0176 10.6388 33.337C10.1632 33.372 9.93079 33.0898 9.62891 32.7791C10.2435 31.3984 11.2165 30.2366 11.9766 28.9873C12.5174 28.9654 12.7607 29.2805 13.0799 29.5649C12.8541 30.0288 12.6521 30.4445 12.4023 30.9587C13.8466 31.9279 15.28 32.8885 16.7264 33.8577C16.6634 34.3588 16.4093 34.687 16.0901 35.0568C14.4547 34.3347 13.1646 33.0635 11.5271 32.2977Z" fill="white"/>
<path d="M10.6207 46.7011C8.98095 46.1323 7.38467 45.5809 5.83616 45.0427C5.28018 45.3599 5.51473 46.0929 4.9088 46.3467C4.59171 46.408 4.28549 46.2373 3.85547 45.9813C4.36367 44.5504 4.86536 43.1369 5.34533 41.7847C5.8644 41.6228 6.15542 41.8438 6.45079 42.0364C6.68534 42.5462 6.20754 42.9334 6.24881 43.5614C7.82337 44.1456 9.46092 44.7538 11.0659 45.349C11.1462 45.8938 11.0615 46.2964 10.6207 46.7011Z" fill="white"/>
<path d="M129.24 74.9284C128.699 75.0115 128.347 75.005 128.043 74.7468C127.768 74.2983 128.248 73.8257 127.924 73.2262C126.33 73.0074 124.634 72.7754 122.99 72.5522C122.642 72.06 122.881 71.6486 122.935 71.0841C124.705 71.3095 126.432 71.5305 128.069 71.7405C128.541 71.2788 128.202 70.6881 128.612 70.3074C128.938 70.1214 129.27 70.2111 129.709 70.4452C129.759 71.9221 129.366 73.3881 129.24 74.9284Z" fill="white"/>
<path d="M35.4472 9.13561C34.9282 9.32815 34.5003 9.48568 34.0985 9.63228C33.7119 9.40035 33.5795 9.08091 33.5273 8.61268C34.724 7.72873 36.1813 7.30208 37.3888 6.57129C37.8992 6.79009 37.9578 7.16423 38.0751 7.48587C37.8449 8.01973 37.1912 7.99348 36.8567 8.52516C37.4844 10.1158 38.516 11.584 39.0546 13.2315C38.731 13.6275 38.4009 13.8026 37.8189 13.7785C37.0544 12.2841 36.2595 10.7263 35.4472 9.13561Z" fill="white"/>
<path d="M84.5082 4.30031C83.9739 4.07057 83.5526 3.88678 83.1769 3.72487C82.9597 3.2632 83.3115 2.99189 83.2898 2.51929C84.9165 2.83217 86.3282 3.43168 87.7529 3.9196C87.8615 4.4294 87.5422 4.71383 87.4445 5.11205C86.9232 4.98952 86.4802 4.8845 85.9437 4.75978C85.3791 6.43359 84.8253 8.06801 84.2823 9.67618C83.7459 9.8184 83.3636 9.68274 82.9141 9.28453C83.4244 7.68949 83.95 6.04632 84.5082 4.30031Z" fill="white"/>
<path d="M71.9521 128.466C72.1476 128.801 72.2409 129.098 72.1302 129.424C70.5296 130.545 68.8421 129.818 68.6596 127.939C68.6032 127.359 68.588 126.775 68.5206 126.195C68.2448 123.825 68.9593 123.084 71.3939 123.25C71.6415 123.583 71.6133 123.979 71.622 124.388C71.1116 124.589 70.5078 124.267 69.9605 124.803C69.9149 125.948 69.7564 127.197 70.2863 128.287C70.8705 128.716 71.3831 128.398 71.9521 128.466Z" fill="white"/>
<path d="M57.7402 0.477905C57.9986 0.878306 58.0551 1.18462 57.9791 1.54564C57.3862 2.09045 56.5131 1.78413 55.7812 2.27424C56.0635 3.96774 56.3524 5.70937 56.6347 7.40725C56.1982 7.77264 55.7964 7.63261 55.3316 7.74201C54.7757 5.53871 54.4586 3.37698 54.1523 1.14743C55.3772 0.801727 56.5348 0.609184 57.7402 0.477905Z" fill="white"/>
<path d="M4.98164 73.2765C3.92397 73.3881 2.89236 73.7557 1.86943 73.7119C1.56538 73.3181 1.55452 72.9592 1.57841 72.3816C3.6981 71.9965 5.85906 71.6027 8.0439 71.2045C8.30452 71.7383 8.47826 72.1541 8.25457 72.6332C7.22513 73.1583 6.09578 73.1824 4.98164 73.2765Z" fill="white"/>
<path d="M87.5469 119.336C87.8878 118.896 88.294 118.843 88.7175 118.64C89.6948 120.543 90.4093 122.504 91.1847 124.423C90.8871 124.832 90.5266 124.933 90.0466 124.978C89.0129 123.206 88.4808 121.195 87.5469 119.336Z" fill="white"/>
<path d="M37.3741 120.9C37.0505 120.097 36.994 119.288 36.8594 118.506C37.6152 118.008 38.4622 118.244 39.1876 117.8C39.6241 118.653 39.6545 119.467 39.8217 120.268C39.0247 120.694 38.2189 120.775 37.3741 120.9Z" fill="white"/>
<path d="M95.4781 118.662C95.3044 119.511 95.1546 120.246 94.9938 121.023C94.1447 121.099 93.4214 120.782 92.62 120.653C92.4224 119.773 92.872 119.025 92.9567 118.167C93.8189 118.145 94.5942 118.323 95.4781 118.662Z" fill="white"/>
<path d="M119.648 87.3058C120.356 87.4546 121.143 87.413 121.623 88.1219C120.932 87.925 120.235 87.7478 119.648 87.3058Z" fill="white"/>
<path d="M110.703 23.8433C110.681 24.3553 110.338 24.5851 109.921 24.7492C109.906 24.5807 110.11 24.3903 109.871 24.2459C110.045 24.0206 110.29 23.9177 110.553 23.8433C110.603 23.7514 110.653 23.7514 110.703 23.8433Z" fill="white"/>
<path d="M105.948 113.161C105.672 112.791 105.577 112.369 105.531 111.879C105.963 112.019 106.133 112.306 106.244 112.645C106.005 112.735 106.005 112.964 105.948 113.161Z" fill="white"/>
<path d="M107.276 23.3816C107.083 23.7273 106.694 23.9987 106.859 24.4822C106.362 24.1212 106.727 23.7558 106.855 23.3926C106.909 23.2919 106.981 23.281 107.07 23.3466C107.139 23.3488 107.209 23.3598 107.276 23.3816Z" fill="white"/>
<path d="M121.595 85.9974C121.525 86.0149 121.454 86.0258 121.382 86.028C121.306 86.0477 121.243 86.0236 121.193 85.9624C121.124 85.8902 121.054 85.8158 120.985 85.7436C120.919 85.5839 120.854 85.4241 120.789 85.2644C121.184 85.3651 121.38 85.6933 121.595 85.9974Z" fill="white"/>
<path d="M106.414 20.5394C106.579 20.2025 106.909 20.2659 107.215 20.1018C107.172 20.4606 107.116 20.6794 106.838 20.7494C106.696 20.6816 106.555 20.6116 106.414 20.5394Z" fill="white"/>
<path d="M24.091 15.2839C24.1018 15.5027 24.1127 15.7237 24.1236 15.9425C23.9389 15.8922 23.8152 15.7762 23.75 15.5946C23.75 15.3649 23.8933 15.2927 24.091 15.2839Z" fill="white"/>
<path d="M106.664 23.1825C106.79 22.8806 107.022 22.6837 107.296 22.5283C107.22 22.7406 107.144 22.955 107.068 23.1672C107.009 23.246 106.938 23.2613 106.853 23.2153C106.79 23.2153 106.725 23.2044 106.664 23.1825Z" fill="white"/>
<path d="M107.303 18.8219C107.167 18.9991 107.012 19.1239 106.767 18.9816C106.676 18.7103 106.85 18.625 107.062 18.5681C107.145 18.6534 107.225 18.7388 107.303 18.8219Z" fill="white"/>
<path d="M23.8789 24.0533C24.0961 24.0489 24.3133 24.0445 24.5305 24.0402C24.3176 24.3596 24.1004 24.3115 23.8789 24.0533Z" fill="white"/>
<path d="M115.729 30.8099L115.627 30.8317L115.525 30.8077C115.454 30.7377 115.384 30.6655 115.312 30.5954C115.391 30.5298 115.467 30.4642 115.545 30.4007C115.916 30.3941 115.929 30.5539 115.729 30.8099Z" fill="white"/>
<path d="M114.434 30.8077C114.627 30.6283 114.84 30.5167 115.111 30.6195C114.937 30.8821 114.692 30.8733 114.434 30.8077Z" fill="white"/>
<path fill-rule="evenodd" clip-rule="evenodd" d="M13.6274 92.9518C13.5518 92.911 13.486 92.8472 13.4162 92.7795C13.2702 92.6378 13.1068 92.4792 12.7991 92.4803C11.9141 92.6664 11.051 93.104 10.1417 93.565C9.56496 93.8574 8.96959 94.1593 8.33823 94.4123C7.792 93.7685 7.47056 93.0149 7.13098 92.2189C6.93859 91.7679 6.74039 91.3032 6.49219 90.8372C7.3695 90.4074 8.22964 89.9866 9.0738 89.5735C10.1982 89.0233 11.2942 88.487 12.3648 87.9622C12.9425 88.2925 13.0598 88.6842 13.0272 89.2596C12.1314 89.7049 11.2209 90.1565 10.3101 90.6083C9.69926 90.9112 9.08832 91.2142 8.48157 91.5154C8.37732 91.9158 8.48591 92.2047 8.77042 92.5044C9.32643 92.4068 9.82001 92.1377 10.3161 91.8672C10.6319 91.695 10.9487 91.5223 11.2832 91.3929C13.5484 90.5177 13.8937 90.6227 14.971 92.7648C14.8708 92.8991 14.7825 93.0499 14.6942 93.2007C14.377 93.7429 14.06 94.2846 13.1901 94.0535C13.3117 93.9135 13.4339 93.7734 13.556 93.6334C13.6782 93.4934 13.8004 93.3533 13.922 93.2133C13.9225 93.2127 13.9229 93.2121 13.9234 93.2115C13.9139 93.1728 13.8311 93.1102 13.7482 93.0477C13.7043 93.0146 13.6604 92.9814 13.6274 92.9518Z" fill="white"/>
<path fill-rule="evenodd" clip-rule="evenodd" d="M28.9268 15.7434C28.8568 16.0481 28.9436 16.3461 29.0304 16.6445C29.1431 17.0319 29.2561 17.42 29.0267 17.8242C28.5724 17.966 28.2469 17.7529 27.9239 17.5415C27.7435 17.4234 27.5639 17.3058 27.3631 17.2509C27.1654 17.4019 27.2436 17.5529 27.3652 17.7017C27.559 18.0352 27.8106 18.3291 28.062 18.6228L28.062 18.6228C28.4192 19.0401 28.7759 19.4569 28.9659 19.9859C28.7313 20.3798 28.4142 20.5942 27.8908 20.7758L26.533 19.0352C25.7328 18.0096 24.9273 16.9771 24.1227 15.9447C23.9446 15.7325 23.9338 15.5137 24.0901 15.2861C24.1759 15.2333 24.2516 15.1655 24.3302 15.0951C24.5022 14.941 24.6878 14.7748 25.0218 14.7282C25.3933 14.7661 25.743 14.9531 26.1087 15.1487C26.4828 15.3487 26.8737 15.5578 27.3218 15.6253C27.4251 15.1733 27.3234 14.7403 27.2217 14.3071C27.1245 13.893 27.0272 13.4788 27.109 13.0478C27.2914 12.6781 27.602 12.4549 28.1319 12.2361C28.9187 13.2547 29.7132 14.2826 30.51 15.3134L32.1258 17.4041C31.9173 17.9423 31.5525 18.1896 30.9878 18.3581L30.3548 17.508C29.9289 16.9363 29.5001 16.3606 29.0723 15.785C29.0706 15.7847 29.0691 15.7843 29.0676 15.7836C29.0677 15.7848 29.0678 15.786 29.0679 15.7872C29.0136 15.7937 28.9659 15.7806 28.9268 15.7434C28.9268 15.7434 28.9268 15.7434 28.9268 15.7434Z" fill="white"/>
<path d="M104.226 112.019C104.274 112.058 104.322 112.098 104.383 112.144C104.176 112.295 104.094 112.198 104.055 111.997C104.115 111.973 104.172 111.98 104.226 112.019Z" fill="white"/>
<path d="M119.223 87.076C119.409 87.0782 119.574 87.1176 119.659 87.3102C119.462 87.3364 119.303 87.2817 119.223 87.076Z" fill="white"/>
<path d="M107.91 21.8391C107.93 21.7013 108.004 21.6225 108.145 21.6138C108.067 21.6882 107.988 21.7647 107.91 21.8391Z" fill="white"/>
<path d="M107.695 22.0558C107.771 21.9792 107.847 21.9048 107.923 21.8282C107.847 21.9048 107.771 21.9814 107.695 22.0558Z" fill="white"/>
<path d="M107.492 22.2899C107.492 22.1498 107.566 22.0711 107.701 22.047C107.631 22.128 107.562 22.2089 107.492 22.2899Z" fill="white"/>
<path d="M106.838 20.7517C106.846 20.9005 106.775 20.9727 106.629 20.9749C106.631 20.837 106.696 20.7583 106.838 20.7517Z" fill="white"/>
<path d="M23.6719 23.828C23.7436 23.9046 23.8154 23.9833 23.8871 24.0599C23.8154 23.9833 23.7436 23.9068 23.6719 23.828Z" fill="white"/>
<path d="M108.396 22.3096C108.385 22.4518 108.311 22.5284 108.168 22.5327C108.244 22.4584 108.32 22.384 108.396 22.3096Z" fill="white"/>
<path d="M22.8114 105.055C22.7636 105.112 22.7158 105.171 22.668 105.228C22.7158 105.168 22.7636 105.112 22.8114 105.055Z" fill="white"/>
<path d="M108.176 22.5261C108.1 22.5983 108.021 22.6705 107.945 22.7427C108.021 22.6705 108.097 22.5983 108.176 22.5261Z" fill="white"/>
<path d="M107.949 22.7384C107.94 22.8806 107.859 22.9463 107.723 22.9528C107.796 22.8806 107.873 22.8106 107.949 22.7384Z" fill="white"/>
<path d="M115.518 30.812C115.446 30.8733 115.373 30.9346 115.301 30.998C115.316 30.8667 115.383 30.7989 115.518 30.812Z" fill="white"/>
<path d="M107.724 22.9528C107.65 23.0228 107.574 23.0906 107.5 23.1606C107.576 23.0906 107.65 23.0206 107.724 22.9528Z" fill="white"/>
<path d="M106.856 23.2154C106.928 23.2001 107 23.1826 107.072 23.1672C107.072 23.2263 107.072 23.2876 107.072 23.3466C107 23.362 106.928 23.3773 106.856 23.3926C106.856 23.3335 106.854 23.2744 106.856 23.2154Z" fill="white"/>
<path d="M107.494 23.165C107.481 23.2941 107.423 23.3773 107.281 23.3773C107.353 23.3073 107.425 23.2351 107.494 23.165Z" fill="white"/>
<path fill-rule="evenodd" clip-rule="evenodd" d="M30.5897 119.113C30.7036 119.03 30.8254 118.941 30.9506 118.85C32.8379 119.815 33.244 119.657 34.6514 117.524C35.5027 116.231 35.355 115.585 33.952 114.371C33.8535 114.206 33.9151 114.064 33.979 113.915C34.0518 113.747 34.1275 113.572 33.9737 113.349C33.9406 113.324 33.9062 113.296 33.8704 113.267C33.6789 113.113 33.4478 112.927 33.155 112.879C32.9842 112.891 32.873 113.004 32.7644 113.114C32.6409 113.24 32.5209 113.361 32.321 113.327C30.8051 112.529 30.0797 112.66 29.2544 113.874C27.8405 115.96 27.8688 116.48 29.5128 117.944C29.4542 118.161 29.3912 118.388 29.3348 118.592C29.6127 118.968 29.9081 119.211 30.3903 119.259C30.453 119.213 30.5199 119.164 30.5897 119.113ZM31.7954 114.634C31.4676 115.125 31.1517 115.599 30.8465 116.056L30.3576 116.789C29.932 116.721 29.7886 116.487 29.6844 116.143C29.9363 115.402 30.3924 114.769 30.9267 114.244C31.3198 114.124 31.5391 114.284 31.7954 114.634ZM31.5869 117.749C32.0452 116.824 32.5316 116.084 33.1007 115.36C33.9585 115.859 33.6697 116.408 33.2809 116.922C33.2063 117.02 33.1387 117.134 33.0702 117.249C32.7835 117.729 32.4809 118.237 31.5869 117.749Z" fill="white"/>
<path fill-rule="evenodd" clip-rule="evenodd" d="M104.67 13.3143C104.304 13.0321 103.941 12.7516 103.57 12.4658C103.109 12.9014 102.707 13.387 102.307 13.8692C101.382 14.9854 100.472 16.0833 98.8836 16.5005C98.7936 16.6628 98.661 16.8182 98.5206 16.9827C98.241 17.3104 97.9308 17.6738 97.8672 18.1983C98.1126 18.4959 98.3667 18.7366 98.7967 18.8241L98.8169 18.8061C99.0567 18.5923 99.3158 18.3613 99.6242 18.0889C99.8365 18.2758 100.073 18.4303 100.31 18.5846C100.762 18.8802 101.214 19.1753 101.494 19.6971C101.461 19.8142 101.395 19.9163 101.328 20.0188C101.208 20.2034 101.088 20.3892 101.157 20.6664C101.303 21.0011 101.585 21.2396 102.13 21.2878C102.26 21.1194 102.393 20.9471 102.524 20.7785C102.781 20.4455 103.027 20.1271 103.214 19.8831C103.37 19.579 103.284 19.3608 103.214 19.1808C103.162 19.0499 103.119 18.9393 103.182 18.8307C103.707 18.1263 104.22 17.4391 104.735 16.7489C105.262 16.0433 105.791 15.3346 106.337 14.6013C105.757 14.1534 105.211 13.732 104.67 13.3143ZM104.011 14.8376C104.099 14.881 104.131 14.9558 104.125 15.0335C104.106 15.1044 104.066 15.1761 104.007 15.2488L103.987 15.2729C103.975 15.2855 103.963 15.2979 103.95 15.3102C103.856 15.391 103.782 15.4622 103.717 15.547C103.669 15.6031 103.627 15.6635 103.594 15.732C103.585 15.7407 103.575 15.7494 103.565 15.7581L103.565 15.7582C103.497 15.8176 103.428 15.8775 103.402 15.9708C103.336 16.0018 103.306 16.0592 103.284 16.1218C103.272 16.1433 103.26 16.1654 103.248 16.1887C103.223 16.239 103.195 16.2944 103.149 16.3581L103.149 16.3582L103.092 16.4483C102.729 17.0226 102.366 17.5971 101.813 18.0254C101.435 17.9204 101.214 17.6578 101.016 17.3165C101.283 16.9262 101.647 16.6396 102.01 16.3534C102.26 16.1567 102.51 15.9602 102.728 15.7302C102.752 15.6997 102.78 15.6719 102.808 15.6441C102.854 15.5992 102.899 15.5542 102.93 15.4971C103.017 15.4362 103.093 15.3668 103.135 15.2661C103.17 15.2491 103.203 15.2308 103.232 15.209C103.324 15.1934 103.419 15.1106 103.518 15.0245C103.671 14.891 103.833 14.7494 104.011 14.8376ZM103.135 15.2661L103.125 15.2707L103.138 15.2576L103.135 15.2661ZM102.93 15.4971L102.925 15.5005L102.932 15.4939L102.93 15.4971ZM103.402 15.9708L103.412 15.9665L103.402 15.9804L103.399 15.9823L103.402 15.9708ZM103.594 15.732L103.596 15.7302L103.594 15.7324L103.594 15.732Z" fill="white"/>
<path d="M103.406 15.9862C103.471 15.9009 103.539 15.8178 103.604 15.7324C103.537 15.8178 103.471 15.9009 103.406 15.9862Z" fill="white"/>
<path d="M103.143 15.2621C103.071 15.343 103.001 15.424 102.93 15.505C103.001 15.424 103.073 15.343 103.143 15.2621Z" fill="white"/>
<path d="M103.327 15.0126C103.262 15.1001 103.194 15.1854 103.129 15.2729C103.194 15.1876 103.259 15.1001 103.327 15.0126Z" fill="white"/>
<path fill-rule="evenodd" clip-rule="evenodd" d="M24.105 103.746C23.5925 104.12 23.1038 104.488 22.8128 105.055C22.7368 105.087 22.6868 105.144 22.6716 105.227C22.5131 105.373 22.5897 105.509 22.6661 105.644C22.7343 105.765 22.8024 105.885 22.7042 106.013C22.7617 106.07 22.8188 106.127 22.8758 106.185C22.9328 106.242 22.9898 106.3 23.0473 106.356C22.26 107.022 21.4735 107.688 20.6822 108.358C20.1463 108.812 19.6083 109.267 19.0664 109.726C19.9264 110.77 20.6605 111.595 21.5662 112.214C22.002 112.017 22.3012 111.703 22.5941 111.395C22.7551 111.226 22.9142 111.058 23.093 110.914C23.3214 110.729 23.5434 110.516 23.7664 110.303C24.3636 109.73 24.9675 109.152 25.7187 109.085C26.7032 108.997 27.1263 108.454 27.5614 107.894C27.6696 107.755 27.7785 107.615 27.897 107.481C27.7776 106.98 27.5061 106.731 27.0478 106.623C26.8365 106.756 26.6182 106.893 26.3866 107.038C26.304 107.09 26.2197 107.143 26.1335 107.197C26.0635 107.135 25.9933 107.073 25.9233 107.012C25.3705 106.527 24.8294 106.053 24.4612 105.466C24.5086 105.278 24.6244 105.145 24.7348 105.018C24.8774 104.854 25.0111 104.7 24.9781 104.451C24.7739 104.112 24.5285 103.823 24.105 103.746ZM22.3806 108.555C22.7998 107.958 23.321 107.461 23.8748 107.008C24.3005 107.118 24.4894 107.409 24.6567 107.763C24.3977 108.185 23.991 108.404 23.5853 108.622C23.2936 108.78 23.0025 108.936 22.7672 109.168C22.7259 109.256 22.6608 109.315 22.5717 109.345L22.5435 109.376L22.5379 109.381C22.4085 109.658 22.2116 109.864 21.9328 109.99L21.9289 109.995C21.7681 110.214 21.5922 110.389 21.2947 110.225L21.2925 110.223C21.0167 110.094 20.9689 109.938 21.2404 109.748L21.2412 109.755L21.2426 109.75C21.2447 109.682 21.2795 109.641 21.3446 109.627L21.349 109.624L21.3425 109.625C21.5401 109.262 21.8224 108.986 22.1699 108.774L22.1686 108.781L22.1721 108.776L22.196 108.757C22.2351 108.667 22.2959 108.599 22.3806 108.555Z" fill="white"/>
<path d="M22.3823 108.555C22.3192 108.621 22.2584 108.689 22.1953 108.755C22.2584 108.687 22.3214 108.621 22.3823 108.555Z" fill="white"/>
<path fill-rule="evenodd" clip-rule="evenodd" d="M120.025 49.6251C120.072 49.7952 120.126 49.9913 120.191 50.2282C120.359 50.1913 120.528 50.1611 120.694 50.1312C121.574 49.9734 122.393 49.8265 122.711 48.7666C123.013 48.6648 123.315 48.5648 123.616 48.4651C124.927 48.0311 126.23 47.6 127.497 47.0271C127.406 46.1683 127.109 45.4257 126.819 44.6991C126.697 44.3946 126.576 44.093 126.472 43.7867C125.782 43.8534 125.114 44.0598 124.45 44.2651C123.151 44.6666 121.865 45.0639 120.454 44.4038C120.252 44.4814 120.047 44.56 119.841 44.6393C119.431 44.7968 119.013 44.9569 118.597 45.117C118.571 45.6115 118.682 45.9747 119.025 46.2985C119.162 46.2811 119.302 46.2629 119.451 46.2436C119.656 46.2169 119.878 46.1881 120.129 46.1563C120.2 46.4946 120.333 46.8089 120.464 47.1167C120.652 47.5575 120.833 47.9852 120.819 48.4515C120.702 48.6308 120.53 48.6935 120.363 48.7539C120.162 48.8269 119.971 48.8965 119.898 49.1648C119.936 49.3015 119.977 49.4495 120.025 49.6251ZM125.104 46.3883L125.104 46.3883C125.133 46.3352 125.193 46.2975 125.266 46.2662C125.285 46.2549 125.304 46.2436 125.322 46.2322C125.559 46.0901 125.815 45.9365 125.528 45.5285L125.528 45.5284C125.458 45.4956 125.389 45.4956 125.319 45.5328C125.314 45.5359 125.31 45.5389 125.305 45.5417C125.248 45.5795 125.171 45.5997 125.093 45.6199C125.016 45.6399 124.939 45.6599 124.882 45.697C124.879 45.6998 124.875 45.7027 124.872 45.7057L124.876 45.7035C124.79 45.8099 124.676 45.824 124.558 45.8285C124.519 45.838 124.479 45.8464 124.439 45.855C124.362 45.8711 124.284 45.8877 124.202 45.9125L124.201 45.9135C123.85 46.0145 123.483 46.0361 123.116 46.0578C122.609 46.0877 122.102 46.1176 121.638 46.3577C121.666 46.7975 121.76 47.1279 122.122 47.4145C123.097 47.0797 124.101 46.734 125.104 46.3883Z" fill="white"/>
<path fill-rule="evenodd" clip-rule="evenodd" d="M119.552 100.353C117.752 98.9785 115.982 97.7095 114.014 96.4514C113.814 96.7393 113.621 97.0065 113.437 97.262C113.06 97.7833 112.719 98.2554 112.426 98.7532C112.046 99.4096 111.964 100.158 112.452 100.81C112.911 101.423 113.536 101.755 114.338 101.654C114.395 101.647 114.452 101.628 114.51 101.609C114.657 101.562 114.808 101.512 114.978 101.639C115.143 102.355 115.441 102.989 116.26 103.195C117.146 103.418 117.728 102.891 118.219 102.311C118.552 101.917 118.831 101.477 119.132 101.004C119.265 100.793 119.403 100.575 119.552 100.353ZM114.216 98.4623C114.69 98.5947 115.009 98.8566 115.353 99.1389C115.401 99.1785 115.45 99.2186 115.499 99.2587C115.393 99.7313 115.193 100.13 114.67 100.232C114.331 100.3 114.036 100.173 113.851 99.8517C113.534 99.2981 113.825 98.8977 114.216 98.4623ZM117.576 100.832C117.437 101.248 117.237 101.484 116.931 101.613C116.535 101.654 116.314 101.464 116.194 101.088C116.227 100.777 116.359 100.495 116.627 100.248C117.034 100.193 117.261 100.461 117.513 100.758C117.533 100.782 117.554 100.807 117.576 100.832Z" fill="white"/>
<path fill-rule="evenodd" clip-rule="evenodd" d="M21.3288 21.3611C22.1184 22.192 22.8958 23.01 23.6724 23.828C23.6951 23.8522 23.7193 23.8751 23.7436 23.8981C23.7949 23.9467 23.8465 23.9956 23.8848 24.0578C23.8835 24.0571 23.8822 24.0563 23.8809 24.0555L23.8874 24.0621C23.8866 24.0607 23.8857 24.0592 23.8848 24.0578C24.1028 24.1848 24.3187 24.2033 24.5325 24.0424C25.2035 23.5457 25.866 23.0337 26.3503 22.3423C27.067 21.3227 26.8346 20.1872 25.829 19.5045C25.5443 19.3114 25.2276 19.2919 24.9141 19.2726C24.7374 19.2618 24.5618 19.2509 24.3935 19.2091C24.2175 17.531 23.2381 16.7586 21.9806 17.3953C21.0576 17.8613 20.3213 18.6184 19.5938 19.5352C20.1814 20.1537 20.7583 20.7608 21.3288 21.3611ZM21.594 19.2901C21.9675 18.9641 22.2738 18.7256 22.7689 18.8285C23.2598 19.3448 22.9253 19.7584 22.5648 20.1938C22.0197 20.1391 21.7351 19.8284 21.594 19.2901ZM24.3956 22.4562L24.1241 22.1624L24.1236 22.1619C23.8531 21.8692 23.6038 21.5995 23.3532 21.3272C23.5139 20.9158 23.8266 20.7102 24.2349 20.5986C24.7562 20.6314 25.0971 20.8677 25.1514 21.4497C25.0168 21.8217 24.7779 22.1236 24.3956 22.4562Z" fill="white"/>
<path d="M115.728 30.8098C115.751 30.6348 115.721 30.4838 115.543 30.4006C115.68 30.1797 115.849 30.1184 116.077 30.2869C116.199 30.6216 115.969 30.7179 115.728 30.8098Z" fill="white"/>
<path d="M115.986 29.0858C115.962 29.1099 115.938 29.134 115.914 29.158C115.944 29.1405 115.973 29.1252 116.003 29.1099L115.986 29.0858Z" fill="white"/>
<path d="M110.703 23.8432L110.627 23.8739L110.551 23.8432C110.622 23.7754 110.694 23.7076 110.768 23.6376C110.94 23.8126 110.79 23.8126 110.703 23.8432Z" fill="white"/>
<path fill-rule="evenodd" clip-rule="evenodd" d="M98.1111 113.039C97.6159 113.133 97.3032 113.352 96.9883 113.787C97.8086 115.136 98.7514 116.418 99.7091 117.721C100.083 118.229 100.459 118.74 100.83 119.259C100.986 119.151 101.134 119.049 101.278 118.95C101.65 118.693 101.99 118.459 102.324 118.22C103.145 117.629 103.882 116.953 103.667 115.811C103.447 114.645 102.546 114.308 101.499 114.262C101.287 113.784 101.218 113.277 101.15 112.774C101.076 112.231 101.003 111.692 100.75 111.201C100.133 111.175 99.8203 111.55 99.5281 111.901C99.522 111.908 99.5159 111.915 99.5098 111.923C99.5201 112.346 99.6028 112.755 99.688 113.175C99.8181 113.818 99.954 114.49 99.8464 115.286C99.4733 114.803 99.1434 114.376 98.8359 113.977C98.583 113.65 98.3453 113.342 98.1111 113.039ZM101.495 115.675C101.139 115.723 100.8 115.822 100.53 116.248C100.696 116.693 100.956 117.025 101.349 117.307C101.729 117.082 102.016 116.789 102.146 116.378C102.077 115.981 101.836 115.787 101.495 115.675Z" fill="white"/>
<path d="M121.367 86.4393C121.454 86.4831 121.541 86.5269 121.628 86.5728C121.541 86.529 121.454 86.4831 121.367 86.4393Z" fill="white"/>
<path fill-rule="evenodd" clip-rule="evenodd" d="M121.426 95.2919C120.275 94.0557 118.769 93.3424 117.568 92.9705C116.076 92.8523 115.586 93.5 115.223 94.3817C114.843 95.3007 115.097 96.0752 115.805 96.62C116.834 97.4143 117.983 98.0378 119.213 98.4842C120.164 98.8299 120.828 98.3507 121.337 97.6177C121.849 96.8782 122.051 95.9636 121.426 95.2919ZM116.491 95.2482C117.492 96.0775 118.661 96.7711 120.081 97.1758C120.444 96.0228 119.136 94.9485 116.913 94.3424C116.585 94.4868 116.409 94.7253 116.491 95.2482Z" fill="white"/>
<path fill-rule="evenodd" clip-rule="evenodd" d="M121.793 52.3439C122.045 53.4489 122.636 53.9127 124.113 53.9083C124.986 53.8186 126.133 53.4882 127.26 53.125C128.342 52.775 128.769 51.8407 128.498 50.6876C128.213 49.482 127.503 48.8825 126.335 49.0444C125.16 49.2064 123.994 49.493 122.899 49.9656C121.787 50.4448 121.513 51.1077 121.793 52.3439ZM123.005 51.7992C123.978 50.6658 126.73 50.2326 127.273 51.1275C126.489 52.298 123.524 52.7641 123.005 51.7992Z" fill="white"/>
<path fill-rule="evenodd" clip-rule="evenodd" d="M90.1745 11.0961C91.1149 9.83582 91.5992 8.34799 91.8316 7.23431C91.9402 5.71585 91.2387 5.20386 90.3808 4.90192C89.5403 4.60654 88.7216 4.70062 88.1743 5.53643C87.3902 6.73764 86.9298 8.08106 86.6866 9.47918C86.5215 10.4244 87.0449 11.0611 87.905 11.4352C88.7389 11.8006 89.6011 11.8641 90.1745 11.0961ZM88.2047 9.24726C87.9549 9.73955 88.0765 10.2625 88.9279 10.3369C89.7206 9.09847 90.4025 7.80975 90.3396 5.95215C89.0683 6.41055 88.8024 7.35775 88.5505 8.25486C88.4526 8.60381 88.3567 8.94518 88.2047 9.24726Z" fill="white"/>
<path fill-rule="evenodd" clip-rule="evenodd" d="M76.6143 4.14115C76.6575 3.75662 76.6993 3.38368 76.7601 3.03127C76.7753 1.8607 76.4887 1.02052 75.3876 0.696697C74.4884 0.434139 73.4916 0.427575 73.0659 1.30058C72.3144 2.84311 72.0495 4.5563 72.397 6.27168C72.6098 7.31316 73.5176 7.53852 74.4189 7.54946C75.3159 7.5604 75.9957 7.20595 76.2671 6.21917C76.4593 5.52292 76.5388 4.81427 76.6143 4.14115ZM74.4016 1.89349C73.7544 3.18221 73.7479 4.56721 73.7522 5.92813C74.369 6.41386 74.7361 6.25414 74.9381 5.61525C75.5396 3.74234 75.3572 2.19324 74.4016 1.89349Z" fill="white"/>
<path fill-rule="evenodd" clip-rule="evenodd" d="M49.5368 2.91528C49.4 4.92603 49.6497 6.88865 51.0592 8.39836C53.0464 8.6828 54.1606 8.10079 54.1823 6.68298C54.204 5.26736 53.8891 3.86048 53.2788 2.57614C52.9118 1.80378 52.2016 1.37931 51.3047 1.5631C50.5141 1.72501 49.5998 2.00508 49.5368 2.91528ZM51.6261 6.97184C52.004 7.22564 52.2668 7.27378 52.5469 7.09436C52.9791 5.88222 52.2754 3.31572 51.1939 2.77528C50.7085 3.91682 51.027 4.92701 51.3313 5.89198C51.4463 6.25685 51.5593 6.61525 51.6261 6.97184Z" fill="white"/>
<path fill-rule="evenodd" clip-rule="evenodd" d="M43.172 6.85787C42.2447 4.58893 40.6593 4.31981 38.8588 6.23867C38.7111 8.1816 39.6732 9.73725 40.6875 11.2229C41.2587 12.0587 42.1795 11.9909 43.0265 11.5226C43.9018 11.0391 44.4339 10.3368 44.1124 9.2909C43.9114 8.64045 43.6489 8.00884 43.3868 7.37813C43.3148 7.20477 43.2427 7.03147 43.172 6.85787ZM42.5885 10.2609C42.6546 10.2204 42.7336 10.172 42.8332 10.1157C42.4336 8.70669 41.9319 7.43109 41.1327 6.30866C40.6201 6.32397 40.3139 6.4465 40.2097 7.00662C40.6375 8.12906 41.1348 9.31932 41.8125 10.4133C41.8814 10.4133 41.9437 10.4165 42.0012 10.4194C42.1157 10.4252 42.2107 10.4301 42.2989 10.4067C42.3854 10.3853 42.4644 10.3369 42.5885 10.2609Z" fill="white"/>
<path fill-rule="evenodd" clip-rule="evenodd" d="M51.773 125.43C51.5676 126.305 51.3629 127.177 51.1562 128.057C53.6104 128.91 54.8896 128.921 55.4369 127.913C56.5597 125.86 55.4803 124.821 53.5474 124.377C53.5481 124.335 53.5483 124.294 53.5485 124.255C53.5505 123.906 53.5522 123.622 53.8406 123.453C54.1722 123.434 54.4852 123.523 54.8001 123.613C55.1905 123.724 55.5837 123.836 56.0189 123.742C56.0629 123.588 56.1068 123.436 56.1533 123.274C56.1987 123.116 56.2465 122.95 56.2991 122.766C55.9558 122.679 55.6191 122.583 55.2849 122.487C54.3991 122.235 53.5302 121.987 52.5983 121.915C52.3176 123.11 52.0446 124.273 51.773 125.43ZM54.2381 126.099C53.9601 125.786 53.6278 125.624 53.1456 125.744C53.1111 125.862 53.0685 125.979 53.0255 126.097C52.8954 126.455 52.7627 126.819 52.8459 127.232C54.0708 127.549 54.3336 127.328 54.2381 126.099Z" fill="white"/>
<path fill-rule="evenodd" clip-rule="evenodd" d="M129.587 68.6555C130.095 67.5462 130.234 66.4566 129.417 65.4195C128.087 64.7501 126.683 64.8727 125.298 64.9936C125.048 65.0153 124.8 65.0371 124.552 65.0541C123.705 65.111 123.199 65.8221 123.128 66.7235C123.054 67.6425 123.169 68.638 124.151 68.8787C125.951 69.3206 127.812 69.5941 129.587 68.6555ZM125.106 66.3821C124.557 66.5178 124.27 66.7978 124.607 67.5942C124.786 67.6149 124.966 67.638 125.146 67.661C126.372 67.8181 127.6 67.9755 128.835 67.3973C128.442 66.4827 126.496 66.0408 125.106 66.3821Z" fill="white"/>
<path fill-rule="evenodd" clip-rule="evenodd" d="M112.692 106.623C113.169 106.857 113.648 107.093 114.131 107.33C114.724 106.895 115.167 106.507 115.285 105.91C115.064 105.608 114.852 105.308 114.643 105.013C114.182 104.363 113.735 103.733 113.25 103.136C113.005 102.834 112.791 102.506 112.577 102.177C112.19 101.583 111.804 100.99 111.236 100.563C110.756 100.812 110.52 101.101 110.483 101.578C110.541 101.699 110.601 101.826 110.662 101.955C110.735 102.107 110.808 102.262 110.882 102.416C110.635 102.893 110.37 103.313 109.912 103.595C109.774 103.581 109.648 103.52 109.52 103.457C109.316 103.358 109.103 103.254 108.817 103.324C108.761 103.396 108.691 103.464 108.618 103.536C108.435 103.714 108.231 103.913 108.172 104.254C108.222 104.293 108.271 104.337 108.321 104.381C108.428 104.475 108.537 104.572 108.663 104.635C109.995 105.299 111.333 105.956 112.692 106.623ZM112.055 103.93L112.048 103.929L112.053 103.934L112.057 103.939C112.133 103.994 112.194 104.066 112.242 104.149C112.3 104.177 112.328 104.224 112.322 104.289C112.544 104.409 112.661 104.6 112.685 104.858C112.52 105.037 112.4 104.921 112.281 104.799L112.281 104.799L112.281 104.801C111.997 104.764 111.751 104.657 111.595 104.399C111.06 104.241 111.309 104.078 111.558 103.914L111.597 103.889L111.597 103.891L111.597 103.891V103.893L111.597 103.895L111.606 103.891L111.599 103.891C111.775 103.619 111.927 103.619 112.055 103.93Z" fill="white"/>
<path fill-rule="evenodd" clip-rule="evenodd" d="M30.9909 10.2842C30.8331 10.3833 30.6692 10.4862 30.4922 10.5973C31.009 12.089 31.5217 13.5675 32.0317 15.0383C32.2698 15.7248 32.5073 16.4097 32.7444 17.0934C33.3155 16.9906 33.6326 16.7739 33.789 16.5748C33.9287 16.2946 33.8542 16.0813 33.7835 15.8789C33.7244 15.7101 33.6681 15.5488 33.7412 15.3627C34.08 15.0148 34.4775 14.7194 34.9683 14.6078C35.1314 14.6471 35.2494 14.7556 35.3676 14.8643C35.5264 15.0102 35.6854 15.1565 35.9543 15.1351C35.96 15.1331 35.9658 15.1311 35.9716 15.1291C36.3299 15.0038 36.7307 14.8638 36.9316 14.3147C35.6206 13.09 34.3012 11.8557 32.9701 10.6103C32.6364 10.2982 32.302 9.98532 31.9668 9.67175C31.6245 9.88639 31.3209 10.077 30.9909 10.2842ZM32.9745 12.4769L32.9723 12.4767L32.9723 12.4767L32.9875 12.4921C33.083 12.5271 33.1417 12.5927 33.1743 12.689C33.228 12.7323 33.2541 12.7884 33.2525 12.8574L33.2525 12.8575L33.2525 12.8575L33.2524 12.8596L33.2492 12.8614C33.29 12.9646 33.3671 13.0312 33.4658 13.076C33.5141 13.1903 33.5999 13.2586 33.7108 13.3016C34.017 13.6254 33.7803 13.7195 33.5023 13.7939L33.5 13.795L33.5022 13.7961C33.1612 14.0849 33.057 13.8573 32.9875 13.5554L32.9876 13.5554L32.7768 13.1244L32.7768 13.1243C32.6031 13.0127 32.564 12.8509 32.6031 12.6585L32.6032 12.6585L32.6031 12.6583C32.5813 12.5905 32.5727 12.5205 32.5727 12.4483L32.5735 12.4476C32.4533 12.3734 32.4624 12.2886 32.5879 12.2581C32.766 12.2165 32.9072 12.2887 32.9745 12.4769ZM33.4658 13.076L33.4632 13.0697L33.4762 13.0806L33.4658 13.076ZM32.993 13.558L32.995 13.5589L32.9931 13.5574L32.993 13.558Z" fill="white"/>
<path d="M33.7103 13.3016C33.6277 13.2251 33.5474 13.1485 33.4648 13.0719C33.5452 13.1485 33.6277 13.2251 33.7103 13.3016Z" fill="white"/>
<path d="M33.4763 13.0851C33.4003 13.0085 33.3221 12.9341 33.2461 12.8575C33.3243 12.9319 33.4003 13.0085 33.4763 13.0851Z" fill="white"/>
<path fill-rule="evenodd" clip-rule="evenodd" d="M21.3494 25.9114C21.5073 25.7345 21.6811 25.5397 21.8716 25.3268C22.0199 25.3797 22.1554 25.4283 22.281 25.4733C22.5289 25.562 22.7383 25.637 22.9315 25.7053C23.3593 25.4318 23.6395 25.1342 23.8632 24.6529C21.8021 23.5523 19.8149 22.4933 17.8885 21.4672C17.2869 21.8741 16.8721 22.2067 16.6875 22.8325C17.5833 24.1528 18.4871 25.4847 19.384 26.8063C19.7222 27.3047 20.0594 27.8016 20.3948 28.2959C20.9638 28.1602 21.2179 27.8867 21.3352 27.4819C21.3815 27.2744 21.2828 27.1132 21.1799 26.945C21.0658 26.7585 20.9464 26.5634 21.0138 26.2873C21.1165 26.1724 21.2283 26.0472 21.3494 25.9114ZM19.1569 23.7887C19.5317 23.7481 19.9438 24.0272 20.1795 24.2684C20.2783 24.3076 20.3571 24.3858 20.4295 24.4756L20.4295 24.4757L20.4295 24.4757C20.7132 24.8537 20.5063 24.9392 20.2993 25.0249L20.2993 25.0249C20.2116 25.0612 20.1238 25.0975 20.0733 25.1562C19.7965 25.0502 19.6875 24.8353 19.581 24.6254L19.581 24.6254C19.5622 24.5882 19.5434 24.5513 19.5239 24.5151L19.5238 24.5128C19.2871 24.3509 19.0765 24.1759 19.1569 23.7887Z" fill="white"/>
<path d="M13.5963 95.5654C13.9916 95.7098 14.0176 95.968 14.1305 96.154C13.7266 96.6113 13.2032 96.5631 12.5625 96.8782C12.8209 96.1431 13.2705 95.9155 13.5963 95.5654Z" fill="white"/>
<path fill-rule="evenodd" clip-rule="evenodd" d="M7.36384 86.4262C6.95988 85.0806 7.39424 84.0632 8.57571 83.5928C9.86794 83.0764 10.7454 83.4353 11.3708 84.8006C11.5843 85.2648 11.7559 85.7471 11.9389 86.2618L11.9389 86.2618L11.939 86.2619C12.026 86.5065 12.1156 86.7584 12.2135 87.0192C11.1441 87.5823 10.033 87.9814 8.94051 88.3739C7.97844 88.7195 7.03083 89.0599 6.13894 89.5025C5.70549 89.2223 5.63399 88.8604 5.56225 88.4973C5.54772 88.4238 5.53318 88.3502 5.51562 88.2773C5.78399 87.965 6.14604 87.8565 6.5065 87.7485L6.5065 87.7485C6.72946 87.6817 6.95181 87.6151 7.151 87.5005L7.15434 87.4988L7.15102 87.4983C7.43105 87.282 7.40452 87.0045 7.378 86.7271C7.36832 86.6258 7.35863 86.5245 7.36386 86.4263L7.36384 86.4262ZM10.3892 86.1287C10.3284 85.7524 10.2176 85.457 9.90271 85.1835C8.59962 85.1201 8.36289 85.4679 8.88196 86.6845C9.44011 86.6451 9.97004 86.5247 10.3892 86.1287Z" fill="white"/>
<path fill-rule="evenodd" clip-rule="evenodd" d="M8.82799 75.1253C8.67379 74.2852 8.30458 73.6266 7.42283 73.3837C6.88422 73.1562 6.35429 73.0774 5.85477 73.4887C4.39268 74.0937 4.49022 75.3577 4.58215 76.549C4.58731 76.6159 4.59245 76.6825 4.59729 76.7488C4.23729 76.9413 3.86498 76.9824 3.50579 77.0219C3.12606 77.0638 2.761 77.104 2.44068 77.3199C2.33426 77.775 2.37336 78.182 2.79686 78.6239C3.43339 78.5086 4.07849 78.4092 4.73078 78.3088C6.20618 78.0816 7.71839 77.8487 9.25149 77.4118C9.20803 77.1776 9.16549 76.9492 9.1237 76.7248C9.02138 76.1755 8.92359 75.6504 8.82799 75.1253ZM6.99714 75.0159C6.52368 74.935 6.20442 75.1363 5.89386 75.4513C5.80698 75.8605 5.8287 76.1668 6.0828 76.5059C6.1284 76.5064 6.17429 76.5071 6.2204 76.5079C6.66622 76.5152 7.13294 76.5229 7.56398 76.2215C7.74207 75.6133 7.42064 75.2763 6.99714 75.0159Z" fill="white"/>
<path fill-rule="evenodd" clip-rule="evenodd" d="M78.5444 6.91567C78.619 6.50459 78.6936 6.09359 78.9352 5.74874C79.183 5.65091 79.3941 5.72069 79.6008 5.789C79.7037 5.82304 79.8056 5.85671 79.9103 5.86908C81.1352 6.01349 82.0257 5.50588 82.2906 4.49503C82.6208 3.23038 82.219 2.41426 80.9289 1.93509C80.1319 1.63971 79.3087 1.37497 78.3206 1.39028C77.8319 3.53888 77.3476 5.66998 76.8633 7.80326C76.9654 7.85114 77.06 7.9021 77.1502 7.95076C77.4767 8.12667 77.7472 8.27247 78.1164 8.13365C78.3878 7.77849 78.4661 7.34704 78.5444 6.91567ZM79.2685 4.23663C79.2689 4.24766 79.2693 4.25869 79.2697 4.26972C80.5163 4.62636 80.8616 4.3638 80.6314 3.2348C80.6088 3.22214 80.5862 3.20934 80.5635 3.19652C80.2575 3.02327 79.9444 2.84602 79.5542 2.9438C79.2384 3.34095 79.2535 3.7902 79.2685 4.23663Z" fill="white"/>
<path fill-rule="evenodd" clip-rule="evenodd" d="M61.4728 126.589C61.5127 126.167 61.5515 125.756 61.6421 125.375C61.6616 124.042 61.0665 123.289 59.9546 123.101C58.7796 122.904 57.9869 123.34 57.6981 124.565C57.4179 125.755 57.2007 126.985 57.3571 128.223C57.483 129.232 58.2171 129.573 59.1097 129.67C59.9719 129.761 60.6734 129.523 61.0492 128.654C61.3414 127.982 61.4086 127.27 61.4728 126.589ZM59.4398 124.346C58.7601 125.217 58.5255 127.508 59.1575 128.641C60.0615 127.944 60.0938 127.042 60.1249 126.174C60.1372 125.831 60.1493 125.493 60.2152 125.175C60.3238 124.659 60.074 124.254 59.4398 124.346Z" fill="white"/>
<path fill-rule="evenodd" clip-rule="evenodd" d="M124.368 91.3923C124.504 91.1033 124.647 90.7986 124.806 90.474C123.885 90.106 123.013 89.697 122.157 89.2957C120.968 88.7379 119.811 88.1951 118.597 87.7981C118.582 87.8193 118.567 87.8402 118.553 87.8609C118.264 88.2707 118.047 88.5774 118.173 89.019C118.464 89.3274 118.851 89.4732 119.246 89.6216C119.626 89.7648 120.013 89.9105 120.326 90.2071C120.283 90.3391 120.239 90.4685 120.196 90.5964C120.11 90.8499 120.027 91.0976 119.954 91.3492C119.62 92.5198 119.98 93.314 121.073 93.8413C122.046 94.3117 122.936 94.047 123.549 93.0099C123.842 92.5126 124.09 91.9856 124.368 91.3923ZM121.594 90.8219C121.212 91.5592 121.155 92.1631 122.128 92.522C122.578 92.1872 122.943 91.8612 122.841 91.2573C122.725 91.2058 122.616 91.1475 122.509 91.0905C122.218 90.9343 121.946 90.7882 121.594 90.8219Z" fill="white"/>
<path fill-rule="evenodd" clip-rule="evenodd" d="M17.3942 30.0918C17.1279 29.9032 16.8547 29.7098 16.5982 29.4773C16.6816 29.341 16.7637 29.2124 16.843 29.0883C17.0155 28.8182 17.1746 28.5691 17.3041 28.3068C17.8318 27.2434 17.6407 26.5104 16.6721 25.7534C15.9054 25.1539 15.0193 25.1911 14.2288 25.8868C13.4882 26.5367 12.9756 27.355 12.4805 28.3308C14.27 29.6414 16.0292 30.9323 17.7515 32.197C18.2162 31.8535 18.4725 31.5669 18.5311 31.1118C18.2373 30.6886 17.8248 30.3966 17.3942 30.0918ZM14.4004 27.8517C14.7066 28.1493 15.015 28.4359 15.4863 28.5956C15.8924 28.2608 16.1313 27.9283 16.0184 27.4294C15.8229 27.0399 15.521 26.8452 15.0584 26.924C14.7153 27.1318 14.4807 27.425 14.4004 27.8517Z" fill="white"/>
<path fill-rule="evenodd" clip-rule="evenodd" d="M18.1391 100.17C17.7785 100.46 17.4133 100.753 16.9127 100.836C16.8436 100.74 16.7758 100.642 16.7075 100.544C16.5764 100.354 16.4438 100.162 16.2981 99.9808C15.6596 99.1909 14.6193 98.9656 13.7723 99.4229C12.9253 99.878 12.4496 100.915 12.8167 101.834C13.2011 102.799 13.7267 103.709 14.628 104.429C15.6618 103.703 16.6847 102.985 17.7122 102.264C18.4634 101.736 19.2171 101.207 19.9793 100.672C19.9245 100.564 19.8776 100.458 19.8328 100.357C19.677 100.007 19.5466 99.7134 19.1975 99.552C18.7848 99.6504 18.4639 99.9086 18.1391 100.17ZM15.8181 101.641C15.0884 100.565 14.7453 100.539 14.1198 101.528C14.1402 101.579 14.1595 101.629 14.1783 101.679C14.3057 102.014 14.4171 102.307 14.7822 102.44C15.1927 102.272 15.6053 102.086 15.8181 101.641Z" fill="white"/>
<path fill-rule="evenodd" clip-rule="evenodd" d="M123.163 61.2357C123.168 61.2495 123.172 61.2635 123.177 61.2775C124.063 61.2294 124.873 61.1835 125.592 61.1419C125.842 61.4138 125.86 61.6634 125.877 61.8953C125.881 61.9545 125.885 62.0126 125.893 62.0696C126.091 63.4437 126.838 64.1569 127.985 64.0563C129.21 63.9491 129.948 63.0892 129.894 61.737C129.872 61.1998 129.8 60.6646 129.725 60.1033C129.691 59.8462 129.656 59.5836 129.625 59.3127C127.362 59.4943 125.203 59.6672 123.12 59.8335C122.903 60.409 123.019 60.7783 123.163 61.2357ZM128.398 60.9078C127.944 60.8641 127.529 60.8794 127.062 61.1376C127.066 61.8137 127.236 62.3103 128.013 62.4197C128.658 62.0653 128.888 61.5992 128.398 60.9078Z" fill="white"/>
<path fill-rule="evenodd" clip-rule="evenodd" d="M11.2606 41.495C10.8929 41.33 10.5172 41.1615 10.1817 40.8855C10.2392 40.7189 10.2985 40.5612 10.3558 40.4087C10.476 40.0887 10.5875 39.792 10.6552 39.4852C10.8637 38.5291 10.5944 37.7502 9.66485 37.3169C8.76354 36.8968 7.87093 36.8881 7.22373 37.7436C6.59607 38.5706 6.15954 39.5159 5.83594 40.5573C6.95795 41.0863 8.05061 41.6006 9.12221 42.1049C10.0273 42.5308 10.9175 42.9497 11.7976 43.3645C12.2167 42.951 12.347 42.5922 12.3948 42.1786C12.0717 41.8589 11.6712 41.6792 11.2606 41.495ZM9.18267 39.0454C8.42254 38.3212 7.98166 38.7019 7.60811 39.5574C7.82032 39.8959 8.11853 40.0289 8.40502 40.1566C8.54075 40.2172 8.67384 40.2765 8.79392 40.356C9.20005 40.0081 9.27606 39.5749 9.18267 39.0454Z" fill="white"/>
<path fill-rule="evenodd" clip-rule="evenodd" d="M75.868 122.745C75.2425 122.699 74.7604 122.799 74.2022 123.053C74.035 125.219 73.8721 127.331 73.707 129.492C74.276 129.512 74.6083 129.414 74.9211 129.254C74.9756 129.14 74.9908 129.016 75.0062 128.89C75.0318 128.68 75.058 128.465 75.2686 128.289C75.6399 128.092 76.0808 127.991 76.526 128.099C76.6634 128.203 76.7381 128.347 76.8123 128.491C76.9131 128.687 77.0128 128.88 77.2666 128.967C77.3059 128.966 77.3458 128.967 77.3863 128.967C77.7002 128.967 78.0469 128.968 78.3373 128.571C77.5164 126.637 76.6868 124.681 75.868 122.745ZM75.9527 126.67C75.8224 126.965 75.5966 126.97 75.3034 126.873C75.1076 126.519 75.1542 126.151 75.2048 125.751C75.2198 125.632 75.2353 125.51 75.2447 125.385C75.7008 125.412 75.766 125.701 75.779 126.033L75.778 126.035L75.779 126.035L75.7855 126.048C75.8727 126.111 75.892 126.204 75.9113 126.297C75.9242 126.359 75.937 126.42 75.9701 126.473C76.0179 126.541 76.0135 126.609 75.9527 126.67L75.9527 126.67Z" fill="white"/>
<path fill-rule="evenodd" clip-rule="evenodd" d="M84.9565 121.524C84.807 121.22 84.6554 120.912 84.4996 120.594C83.9567 120.624 83.6048 120.767 83.3008 121.187C83.8465 122.487 84.4008 123.804 84.9584 125.129C85.1952 125.692 85.4326 126.256 85.6702 126.821C86.6519 126.661 87.4381 126.283 88.1852 125.871C89.0713 125.385 89.3058 124.497 88.9453 123.515C88.5609 122.464 87.8051 121.931 86.8061 122.075C86.5038 122.119 86.2084 122.218 85.8955 122.322C85.743 122.373 85.5863 122.425 85.4226 122.473C85.268 122.157 85.1134 121.843 84.9565 121.524ZM87.0971 123.517C86.7323 123.405 86.3609 123.383 85.9678 123.773C86.0242 124.313 86.2197 124.749 86.5759 125.112C87.0689 125.062 87.3708 124.808 87.5228 124.375C87.5228 124.018 87.412 123.731 87.0971 123.517Z" fill="white"/>
<path fill-rule="evenodd" clip-rule="evenodd" d="M80.8464 126.834C80.7513 126.475 80.6537 126.106 80.6607 125.709C80.7915 125.658 80.9261 125.612 81.0616 125.565C81.358 125.463 81.6584 125.359 81.9312 125.206C82.637 124.814 83.1365 124.241 82.9737 123.355C82.8325 122.58 82.5719 121.826 81.6749 121.666C80.5021 121.456 79.4271 121.821 78.3086 122.311C78.4612 122.935 78.6114 123.55 78.7597 124.156C79.1075 125.579 79.4448 126.959 79.7767 128.315C80.3132 128.372 80.6628 128.357 80.9995 128.083C81.0649 127.659 80.9574 127.253 80.8464 126.834ZM80.0026 123.088C80.0026 123.554 80.0461 123.976 80.3653 124.414C80.9951 124.357 81.3448 124.066 81.4512 123.46C81.1515 122.633 80.6107 122.775 80.0026 123.088Z" fill="white"/>
<path fill-rule="evenodd" clip-rule="evenodd" d="M120.304 84.88C120.423 84.975 120.605 85.1202 120.787 85.2644C120.861 85.3549 120.941 85.4402 121.021 85.5256C121.134 85.6467 121.248 85.7682 121.345 85.9055C121.347 85.907 121.348 85.9085 121.35 85.91C121.381 85.904 121.421 85.8959 121.421 85.8945C121.506 85.8792 121.562 85.9142 121.59 85.9952L121.606 86.0105C121.693 86.0586 121.76 86.1243 121.812 86.2096L121.825 86.2227C121.87 86.2523 121.911 86.2856 121.949 86.3225L121.949 86.3159C122.162 86.4376 122.383 86.6441 122.451 86.785C122.245 86.785 122.166 86.7535 122.057 86.6997L122.057 86.6997C121.986 86.6789 121.914 86.6576 121.842 86.6363L121.842 86.6362C121.771 86.6149 121.699 86.5936 121.627 86.5728C121.538 86.5334 121.451 86.4897 121.367 86.4393C121.092 86.4267 120.835 86.3091 120.579 86.1914C120.169 86.0035 119.759 85.8155 119.273 86.0544C119.272 86.0558 119.27 86.0572 119.269 86.0586C119.287 86.1859 119.225 86.3102 119.163 86.4345C119.06 86.6434 118.956 86.8524 119.23 87.076C119.284 87.1342 119.359 87.1546 119.434 87.1751C119.522 87.1993 119.611 87.2235 119.666 87.3098C119.662 87.3077 119.657 87.3057 119.653 87.3036L119.666 87.3101C119.666 87.31 119.666 87.3099 119.666 87.3098C119.909 87.4264 120.169 87.4998 120.43 87.5732C120.855 87.6929 121.28 87.8126 121.627 88.1197C122.785 88.5923 123.943 89.0671 125.078 89.5331C125.472 89.1437 125.606 88.7476 125.669 88.2838L125.627 88.2407C124.924 87.5219 124.216 86.7978 123.454 86.0149C123.955 86.0568 124.399 86.2334 124.832 86.4055C125.28 86.5838 125.716 86.7574 126.193 86.7719L126.193 86.7718C126.529 86.203 126.529 86.203 126.557 85.5882C125.309 84.8465 121.263 83.3718 120.409 83.3586C120.148 83.7043 120.007 84.0938 120.196 84.794C120.22 84.8126 120.257 84.8423 120.304 84.88Z" fill="white"/>
<path d="M84.6222 25.9168C86.0692 22.95 89.6472 21.7179 92.614 23.1649C95.5808 24.6119 96.8129 28.19 95.3659 31.1568L77.5313 67.7231C76.0843 70.6899 72.5062 71.9219 69.5394 70.4749C66.5726 69.0279 65.3406 65.4498 66.7876 62.4831L84.6222 25.9168Z" fill="#FFC600"/>
<path fill-rule="evenodd" clip-rule="evenodd" d="M76.0234 66.9877L93.858 30.4214C94.8988 28.2874 94.0126 25.7137 91.8786 24.6728C89.7446 23.632 87.1709 24.5182 86.13 26.6522L68.2955 63.2185C67.2547 65.3525 68.1409 67.9262 70.2749 68.967C72.4089 70.0079 74.9826 69.1217 76.0234 66.9877ZM92.614 23.1649C89.6472 21.7179 86.0692 22.95 84.6222 25.9168L66.7876 62.4831C65.3406 65.4498 66.5726 69.0279 69.5394 70.4749C72.5062 71.9219 76.0843 70.6899 77.5313 67.7231L95.3659 31.1568C96.8129 28.19 95.5808 24.6119 92.614 23.1649Z" fill="url(#paint0_linear_2007_24134)"/>
<path d="M112.933 59.1106C116.234 59.1106 118.91 61.7865 118.91 65.0873C118.91 68.3882 116.234 71.0641 112.933 71.0641L72.2497 71.0641C68.9489 71.0641 66.273 68.3882 66.273 65.0873C66.273 61.7865 68.9489 59.1106 72.2497 59.1106L112.933 59.1106Z" fill="#FFC600"/>
<path fill-rule="evenodd" clip-rule="evenodd" d="M72.2497 69.3864L112.933 69.3864C115.308 69.3864 117.232 67.4616 117.232 65.0873C117.232 62.713 115.308 60.7883 112.933 60.7883L72.2497 60.7883C69.8754 60.7883 67.9507 62.713 67.9507 65.0873C67.9507 67.4616 69.8754 69.3864 72.2497 69.3864ZM118.91 65.0873C118.91 61.7865 116.234 59.1106 112.933 59.1106L72.2497 59.1106C68.9489 59.1106 66.273 61.7865 66.273 65.0873C66.273 68.3882 68.9489 71.0641 72.2497 71.0641L112.933 71.0641C116.234 71.0641 118.91 68.3882 118.91 65.0873Z" fill="white"/>
<path fill-rule="evenodd" clip-rule="evenodd" d="M72.2497 69.3864L112.933 69.3864C115.308 69.3864 117.232 67.4616 117.232 65.0873C117.232 62.713 115.308 60.7883 112.933 60.7883L72.2497 60.7883C69.8754 60.7883 67.9507 62.713 67.9507 65.0873C67.9507 67.4616 69.8754 69.3864 72.2497 69.3864ZM118.91 65.0873C118.91 61.7865 116.234 59.1106 112.933 59.1106L72.2497 59.1106C68.9489 59.1106 66.273 61.7865 66.273 65.0873C66.273 68.3882 68.9489 71.0641 72.2497 71.0641L112.933 71.0641C116.234 71.0641 118.91 68.3882 118.91 65.0873Z" fill="url(#paint1_linear_2007_24134)"/>
<path d="M95.4776 99.0361C96.9246 102.003 95.6926 105.581 92.7258 107.028C89.759 108.475 86.1809 107.243 84.7339 104.276L66.8994 67.7099C65.4524 64.7431 66.6844 61.165 69.6512 59.718C72.618 58.271 76.1961 59.503 77.6431 62.4698L95.4776 99.0361Z" fill="#D65151"/>
<path fill-rule="evenodd" clip-rule="evenodd" d="M68.4072 66.9744L86.2418 103.541C87.2826 105.675 89.8564 106.561 91.9904 105.52C94.1244 104.479 95.0106 101.906 93.9697 99.7716L76.1352 63.2053C75.0943 61.0713 72.5206 60.1851 70.3866 61.2259C68.2526 62.2667 67.3664 64.8404 68.4072 66.9744ZM92.7258 107.028C95.6926 105.581 96.9246 102.003 95.4776 99.0361L77.6431 62.4698C76.1961 59.503 72.618 58.271 69.6512 59.718C66.6844 61.165 65.4524 64.7431 66.8994 67.7099L84.7339 104.276C86.1809 107.243 89.759 108.475 92.7258 107.028Z" fill="white"/>
<path fill-rule="evenodd" clip-rule="evenodd" d="M68.4072 66.9744L86.2418 103.541C87.2826 105.675 89.8564 106.561 91.9904 105.52C94.1244 104.479 95.0106 101.906 93.9697 99.7716L76.1352 63.2053C75.0943 61.0713 72.5206 60.1851 70.3866 61.2259C68.2526 62.2667 67.3664 64.8404 68.4072 66.9744ZM92.7258 107.028C95.6926 105.581 96.9246 102.003 95.4776 99.0361L77.6431 62.4698C76.1961 59.503 72.618 58.271 69.6512 59.718C66.6844 61.165 65.4524 64.7431 66.8994 67.7099L84.7339 104.276C86.1809 107.243 89.759 108.475 92.7258 107.028Z" fill="url(#paint2_linear_2007_24134)"/>
<path d="M78.141 65.0873C78.141 68.3882 75.4651 71.0641 72.1642 71.0641C68.8634 71.0641 66.1875 68.3882 66.1875 65.0873C66.1875 61.7865 68.8634 59.1106 72.1642 59.1106C75.4651 59.1106 78.141 61.7865 78.141 65.0873Z" fill="white"/>
<path fill-rule="evenodd" clip-rule="evenodd" d="M72.1642 69.3864C74.5385 69.3864 76.4633 67.4616 76.4633 65.0873C76.4633 62.713 74.5385 60.7883 72.1642 60.7883C69.7899 60.7883 67.8652 62.713 67.8652 65.0873C67.8652 67.4616 69.7899 69.3864 72.1642 69.3864ZM72.1642 71.0641C75.4651 71.0641 78.141 68.3882 78.141 65.0873C78.141 61.7865 75.4651 59.1106 72.1642 59.1106C68.8634 59.1106 66.1875 61.7865 66.1875 65.0873C66.1875 68.3882 68.8634 71.0641 72.1642 71.0641Z" fill="white"/>
<path fill-rule="evenodd" clip-rule="evenodd" d="M72.1642 69.3864C74.5385 69.3864 76.4633 67.4616 76.4633 65.0873C76.4633 62.713 74.5385 60.7883 72.1642 60.7883C69.7899 60.7883 67.8652 62.713 67.8652 65.0873C67.8652 67.4616 69.7899 69.3864 72.1642 69.3864ZM72.1642 71.0641C75.4651 71.0641 78.141 68.3882 78.141 65.0873C78.141 61.7865 75.4651 59.1106 72.1642 59.1106C68.8634 59.1106 66.1875 61.7865 66.1875 65.0873C66.1875 68.3882 68.8634 71.0641 72.1642 71.0641Z" fill="url(#paint3_linear_2007_24134)"/>
<path d="M72.7646 40.8868C72.7646 45.1722 69.2907 48.6461 65.0054 48.6461C60.72 48.6461 57.2461 45.1722 57.2461 40.8868C57.2461 36.6015 60.72 33.1276 65.0054 33.1276C69.2907 33.1276 72.7646 36.6015 72.7646 40.8868Z" fill="white"/>
<path d="M72.7646 40.8868C72.7646 45.1722 69.2907 48.6461 65.0054 48.6461C60.72 48.6461 57.2461 45.1722 57.2461 40.8868C57.2461 36.6015 60.72 33.1276 65.0054 33.1276C69.2907 33.1276 72.7646 36.6015 72.7646 40.8868Z" fill="url(#paint4_linear_2007_24134)"/>
<path fill-rule="evenodd" clip-rule="evenodd" d="M65.0054 46.9684C68.3641 46.9684 71.0869 44.2456 71.0869 40.8868C71.0869 37.5281 68.3641 34.8052 65.0054 34.8052C61.6466 34.8052 58.9238 37.5281 58.9238 40.8868C58.9238 44.2456 61.6466 46.9684 65.0054 46.9684ZM65.0054 48.6461C69.2907 48.6461 72.7646 45.1722 72.7646 40.8868C72.7646 36.6015 69.2907 33.1276 65.0054 33.1276C60.72 33.1276 57.2461 36.6015 57.2461 40.8868C57.2461 45.1722 60.72 48.6461 65.0054 48.6461Z" fill="url(#paint5_linear_2007_24134)"/>
<path d="M45.8192 25.9168C44.3722 22.95 40.7942 21.7179 37.8274 23.1649C34.8606 24.6119 33.6285 28.19 35.0755 31.1568L52.9101 67.7231C54.3571 70.6899 57.9352 71.9219 60.902 70.4749C63.8688 69.0279 65.1008 65.4498 63.6538 62.4831L45.8192 25.9168Z" fill="url(#paint6_linear_2007_24134)"/>
<path fill-rule="evenodd" clip-rule="evenodd" d="M54.418 66.9877L36.5834 30.4214C35.5426 28.2874 36.4288 25.7137 38.5628 24.6728C40.6968 23.632 43.2705 24.5182 44.3114 26.6522L62.1459 63.2185C63.1868 65.3525 62.3006 67.9262 60.1665 68.967C58.0325 70.0079 55.4588 69.1217 54.418 66.9877ZM37.8274 23.1649C40.7942 21.7179 44.3722 22.95 45.8192 25.9168L63.6538 62.4831C65.1008 65.4498 63.8688 69.0279 60.902 70.4749C57.9352 71.9219 54.3571 70.6899 52.9101 67.7231L35.0755 31.1568C33.6285 28.19 34.8606 24.6119 37.8274 23.1649Z" fill="url(#paint7_linear_2007_24134)"/>
<path d="M17.508 59.1106C14.2071 59.1106 11.5313 61.7865 11.5313 65.0873C11.5313 68.3882 14.2071 71.0641 17.508 71.0641L58.1917 71.0641C61.4926 71.0641 64.1684 68.3882 64.1684 65.0873C64.1684 61.7865 61.4926 59.1106 58.1917 59.1106L17.508 59.1106Z" fill="#2A79B2"/>
<path fill-rule="evenodd" clip-rule="evenodd" d="M58.1917 69.3864L17.508 69.3864C15.1337 69.3864 13.2089 67.4616 13.2089 65.0873C13.2089 62.713 15.1337 60.7883 17.508 60.7883L58.1917 60.7883C60.566 60.7883 62.4907 62.713 62.4907 65.0873C62.4907 67.4616 60.566 69.3864 58.1917 69.3864ZM11.5313 65.0873C11.5313 61.7865 14.2071 59.1106 17.508 59.1106L58.1917 59.1106C61.4926 59.1106 64.1684 61.7865 64.1684 65.0873C64.1684 68.3882 61.4926 71.0641 58.1917 71.0641L17.508 71.0641C14.2071 71.0641 11.5313 68.3882 11.5313 65.0873Z" fill="url(#paint8_linear_2007_24134)"/>
<path d="M34.9638 99.0361C33.5168 102.003 34.7488 105.581 37.7156 107.028C40.6824 108.475 44.2605 107.243 45.7075 104.276L63.542 67.7099C64.989 64.7431 63.757 61.165 60.7902 59.718C57.8234 58.271 54.2453 59.503 52.7983 62.4698L34.9638 99.0361Z" fill="#D65151"/>
<path fill-rule="evenodd" clip-rule="evenodd" d="M62.0342 66.9744L44.1996 103.541C43.1588 105.675 40.5851 106.561 38.451 105.52C36.317 104.479 35.4308 101.906 36.4717 99.7716L54.3062 63.2053C55.3471 61.0713 57.9208 60.1851 60.0548 61.2259C62.1888 62.2667 63.075 64.8404 62.0342 66.9744ZM37.7156 107.028C34.7488 105.581 33.5168 102.003 34.9638 99.0361L52.7983 62.4698C54.2453 59.503 57.8234 58.271 60.7902 59.718C63.757 61.165 64.989 64.7431 63.542 67.7099L45.7075 104.276C44.2605 107.243 40.6824 108.475 37.7156 107.028Z" fill="white"/>
<path fill-rule="evenodd" clip-rule="evenodd" d="M62.0342 66.9744L44.1996 103.541C43.1588 105.675 40.5851 106.561 38.451 105.52C36.317 104.479 35.4308 101.906 36.4717 99.7716L54.3062 63.2053C55.3471 61.0713 57.9208 60.1851 60.0548 61.2259C62.1888 62.2667 63.075 64.8404 62.0342 66.9744ZM37.7156 107.028C34.7488 105.581 33.5168 102.003 34.9638 99.0361L52.7983 62.4698C54.2453 59.503 57.8234 58.271 60.7902 59.718C63.757 61.165 64.989 64.7431 63.542 67.7099L45.7075 104.276C44.2605 107.243 40.6824 108.475 37.7156 107.028Z" fill="url(#paint9_linear_2007_24134)"/>
<path d="M52.3004 65.0873C52.3004 68.3882 54.9763 71.0641 58.2772 71.0641C61.578 71.0641 64.2539 68.3882 64.2539 65.0873C64.2539 61.7865 61.578 59.1106 58.2772 59.1106C54.9763 59.1106 52.3004 61.7865 52.3004 65.0873Z" fill="white"/>
<path fill-rule="evenodd" clip-rule="evenodd" d="M58.2772 69.3864C55.9029 69.3864 53.9781 67.4616 53.9781 65.0873C53.9781 62.713 55.9029 60.7883 58.2772 60.7883C60.6515 60.7883 62.5762 62.713 62.5762 65.0873C62.5762 67.4616 60.6515 69.3864 58.2772 69.3864ZM58.2772 71.0641C54.9763 71.0641 52.3004 68.3882 52.3004 65.0873C52.3004 61.7865 54.9763 59.1106 58.2772 59.1106C61.578 59.1106 64.2539 61.7865 64.2539 65.0873C64.2539 68.3882 61.578 71.0641 58.2772 71.0641Z" fill="white"/>
<path fill-rule="evenodd" clip-rule="evenodd" d="M58.2772 69.3864C55.9029 69.3864 53.9781 67.4616 53.9781 65.0873C53.9781 62.713 55.9029 60.7883 58.2772 60.7883C60.6515 60.7883 62.5762 62.713 62.5762 65.0873C62.5762 67.4616 60.6515 69.3864 58.2772 69.3864ZM58.2772 71.0641C54.9763 71.0641 52.3004 68.3882 52.3004 65.0873C52.3004 61.7865 54.9763 59.1106 58.2772 59.1106C61.578 59.1106 64.2539 61.7865 64.2539 65.0873C64.2539 68.3882 61.578 71.0641 58.2772 71.0641Z" fill="url(#paint10_linear_2007_24134)"/>
<defs>
<linearGradient id="paint0_linear_2007_24134" x1="92.6073" y1="51.9565" x2="79.7709" y2="52.2731" gradientUnits="userSpaceOnUse">
<stop stop-color="#6F6F6E"/>
<stop offset="0.51" stop-color="#C3C4C4"/>
<stop offset="1" stop-color="#A1A1A1"/>
</linearGradient>
<linearGradient id="paint1_linear_2007_24134" x1="92.6058" y1="79.4565" x2="85.0577" y2="66.8441" gradientUnits="userSpaceOnUse">
<stop stop-color="#6F6F6E"/>
<stop offset="0.51" stop-color="#C3C4C4"/>
<stop offset="1" stop-color="#A1A1A1"/>
</linearGradient>
<linearGradient id="paint2_linear_2007_24134" x1="67.1712" y1="88.587" x2="72.0957" y2="75.1839" gradientUnits="userSpaceOnUse">
<stop stop-color="#6F6F6E"/>
<stop offset="0.51" stop-color="#C3C4C4"/>
<stop offset="1" stop-color="#A1A1A1"/>
</linearGradient>
<linearGradient id="paint3_linear_2007_24134" x1="78.1864" y1="68.4231" x2="66.13" y2="62.3112" gradientUnits="userSpaceOnUse">
<stop stop-color="#6F6F6E"/>
<stop offset="0.51" stop-color="#C3C4C4"/>
<stop offset="1" stop-color="#A1A1A1"/>
</linearGradient>
<linearGradient id="paint4_linear_2007_24134" x1="65.0054" y1="33.1276" x2="65.0054" y2="48.6461" gradientUnits="userSpaceOnUse">
<stop stop-color="#DFE0E0"/>
<stop offset="1" stop-color="white"/>
</linearGradient>
<linearGradient id="paint5_linear_2007_24134" x1="72.8236" y1="45.2175" x2="57.1714" y2="37.2827" gradientUnits="userSpaceOnUse">
<stop stop-color="#6F6F6E"/>
<stop offset="0.51" stop-color="#C3C4C4"/>
<stop offset="1" stop-color="#A1A1A1"/>
</linearGradient>
<linearGradient id="paint6_linear_2007_24134" x1="37.8274" y1="23.1649" x2="60.902" y2="70.4749" gradientUnits="userSpaceOnUse">
<stop stop-color="#DFE0E0"/>
<stop offset="1" stop-color="white"/>
</linearGradient>
<linearGradient id="paint7_linear_2007_24134" x1="59.4545" y1="50.4348" x2="57.4585" y2="35.5511" gradientUnits="userSpaceOnUse">
<stop stop-color="#6F6F6E"/>
<stop offset="0.51" stop-color="#C3C4C4"/>
<stop offset="1" stop-color="#A1A1A1"/>
</linearGradient>
<linearGradient id="paint8_linear_2007_24134" x1="37.8255" y1="78.2609" x2="45.5688" y2="68.6946" gradientUnits="userSpaceOnUse">
<stop stop-color="#6F6F6E"/>
<stop offset="0.51" stop-color="#C3C4C4"/>
<stop offset="1" stop-color="#A1A1A1"/>
</linearGradient>
<linearGradient id="paint9_linear_2007_24134" x1="49.3471" y1="65.4348" x2="35.1713" y2="76.8841" gradientUnits="userSpaceOnUse">
<stop stop-color="#6F6F6E"/>
<stop offset="0.51" stop-color="#C3C4C4"/>
<stop offset="1" stop-color="#A1A1A1"/>
</linearGradient>
<linearGradient id="paint10_linear_2007_24134" x1="52.255" y1="68.4231" x2="64.3114" y2="62.3112" gradientUnits="userSpaceOnUse">
<stop stop-color="#6F6F6E"/>
<stop offset="0.51" stop-color="#C3C4C4"/>
<stop offset="1" stop-color="#A1A1A1"/>
</linearGradient>
</defs>
</svg>
