<svg width="56" height="56" viewBox="0 0 56 56" fill="none" xmlns="http://www.w3.org/2000/svg">
<rect width="56" height="56" rx="28" fill="#F7F7F7"/>
<path fill-rule="evenodd" clip-rule="evenodd" d="M19.4393 19.4393C20.0251 18.8536 20.9749 18.8536 21.5607 19.4393L28 25.8787L34.4393 19.4393C35.0251 18.8536 35.9749 18.8536 36.5607 19.4393C37.1464 20.0251 37.1464 20.9749 36.5607 21.5607L30.1213 28L36.5607 34.4393C37.1464 35.0251 37.1464 35.9749 36.5607 36.5607C35.9749 37.1464 35.0251 37.1464 34.4393 36.5607L28 30.1213L21.5607 36.5607C20.9749 37.1464 20.0251 37.1464 19.4393 36.5607C18.8536 35.9749 18.8536 35.0251 19.4393 34.4393L25.8787 28L19.4393 21.5607C18.8536 20.9749 18.8536 20.0251 19.4393 19.4393Z" fill="black"/>
</svg>
