<svg width="56" height="56" viewBox="0 0 56 56" fill="none" xmlns="http://www.w3.org/2000/svg">
<rect width="56" height="56" rx="28" fill="white" fill-opacity="0.7"/>
<path d="M37.375 22.0625H18.625C17.7625 22.0625 17.0625 21.3625 17.0625 20.5C17.0625 19.6375 17.7625 18.9375 18.625 18.9375H37.375C38.2375 18.9375 38.9375 19.6375 38.9375 20.5C38.9375 21.3625 38.2375 22.0625 37.375 22.0625ZM37.375 26.4375H18.625C17.7625 26.4375 17.0625 27.1375 17.0625 28C17.0625 28.8625 17.7625 29.5625 18.625 29.5625H37.375C38.2375 29.5625 38.9375 28.8625 38.9375 28C38.9375 27.1375 38.2375 26.4375 37.375 26.4375ZM37.375 33.9375H18.625C17.7625 33.9375 17.0625 34.6375 17.0625 35.5C17.0625 36.3625 17.7625 37.0625 18.625 37.0625H37.375C38.2375 37.0625 38.9375 36.3625 38.9375 35.5C38.9375 34.6375 38.2375 33.9375 37.375 33.9375Z" fill="black"/>
</svg>
