<svg width="48" height="48" viewBox="0 0 48 48" fill="none" xmlns="http://www.w3.org/2000/svg">
<path d="M22.5653 6.90663C23.0263 5.97275 23.2568 5.50582 23.5697 5.35663C23.8419 5.22683 24.1582 5.22683 24.4304 5.35663C24.7433 5.50582 24.9738 5.97275 25.4348 6.90663L29.8081 15.7666C29.9442 16.0423 30.0123 16.1801 30.1117 16.2872C30.1997 16.3819 30.3053 16.4587 30.4226 16.5132C30.5551 16.5748 30.7072 16.5971 31.0114 16.6415L40.794 18.0714C41.8241 18.222 42.3392 18.2973 42.5776 18.5489C42.785 18.7678 42.8825 19.0686 42.843 19.3675C42.7976 19.7112 42.4247 20.0744 41.6789 20.8008L34.6029 27.6928C34.3823 27.9077 34.272 28.0151 34.2009 28.1429C34.1378 28.2561 34.0974 28.3804 34.0818 28.509C34.0642 28.6542 34.0902 28.806 34.1423 29.1095L35.8119 38.8442C35.988 39.871 36.0761 40.3844 35.9106 40.689C35.7666 40.9541 35.5107 41.14 35.2141 41.1949C34.8732 41.2581 34.4122 41.0157 33.4902 40.5308L24.7448 35.9317C24.4723 35.7884 24.336 35.7167 24.1925 35.6886C24.0654 35.6636 23.9347 35.6636 23.8076 35.6886C23.664 35.7167 23.5278 35.7884 23.2553 35.9317L14.5098 40.5308C13.5878 41.0157 13.1268 41.2581 12.7859 41.1949C12.4894 41.14 12.2334 40.9541 12.0895 40.689C11.924 40.3844 12.0121 39.871 12.1881 38.8442L13.8578 29.1095C13.9098 28.806 13.9359 28.6542 13.9182 28.509C13.9026 28.3804 13.8622 28.2561 13.7992 28.1429C13.728 28.0151 13.6178 27.9077 13.3972 27.6928L6.32112 20.8008C5.57533 20.0744 5.20243 19.7112 5.15705 19.3675C5.11757 19.0686 5.21511 18.7678 5.4225 18.5489C5.66087 18.2973 6.17594 18.222 7.20609 18.0714L16.9886 16.6415C17.2928 16.5971 17.445 16.5748 17.5774 16.5132C17.6947 16.4587 17.8003 16.3819 17.8884 16.2872C17.9878 16.1801 18.0559 16.0423 18.1919 15.7666L22.5653 6.90663Z" fill="#FFC600" stroke="#FFC600" stroke-width="2" stroke-linecap="round" stroke-linejoin="round"/>
</svg>
