<svg width="24" height="24" viewBox="0 0 24 24" fill="none" xmlns="http://www.w3.org/2000/svg">
<g clip-path="url(#clip0_1_6811)">
<path d="M0.414181 11.196L6.28318 14.121C6.51018 14.233 6.77818 14.225 6.99518 14.098L12.2192 11.061L9.05718 13.863C8.89618 14.006 8.80418 14.21 8.80418 14.425V21.25C8.80418 21.97 9.72318 22.273 10.1542 21.701L12.6912 18.328L18.9652 21.901C19.4052 22.154 19.9692 21.9 20.0712 21.397L23.9842 1.89704C24.1012 1.31104 23.5182 0.833044 22.9762 1.05104L0.476181 9.82605C-0.127818 10.062 -0.166818 10.907 0.414181 11.196ZM22.2442 2.94704L18.8052 20.084L12.8602 16.698C12.5362 16.513 12.1192 16.595 11.8892 16.899L10.3042 19.006V14.762L18.8552 7.18604C19.5322 6.58704 18.7542 5.52204 17.9812 5.97604L6.59118 12.598L2.59918 10.609L22.2442 2.94704Z" fill="#2A79B2"/>
</g>
<defs>
<clipPath id="clip0_1_6811">
<rect width="24" height="24" fill="white"/>
</clipPath>
</defs>
</svg>
