<svg width="32" height="32" viewBox="0 0 32 32" fill="none" xmlns="http://www.w3.org/2000/svg">
<path fill-rule="evenodd" clip-rule="evenodd" d="M16 3C23.18 3 29 8.82004 29 16C29 23.18 23.18 29 16 29C8.82004 29 3 23.18 3 16C3 8.82004 8.82004 3 16 3Z" fill="url(#paint0_linear_2007_24116)"/>
<path d="M13.2783 18.5679L13.0136 22.1975C13.3923 22.1975 13.5563 22.0389 13.7529 21.8484L15.5283 20.1942L19.2071 22.8208C19.8818 23.1874 20.3571 22.9943 20.5391 22.2157L22.9538 11.1839L22.9545 11.1833C23.1685 10.2109 22.5938 9.83061 21.9365 10.0692L7.7428 15.3673C6.77411 15.7339 6.78878 16.2604 7.57813 16.4989L11.2069 17.5994L19.6358 12.4573C20.0324 12.2012 20.3931 12.3429 20.0964 12.599L13.2783 18.5679Z" fill="white"/>
<defs>
<linearGradient id="paint0_linear_2007_24116" x1="6.44449" y1="7.18539" x2="27.08" y2="22.8037" gradientUnits="userSpaceOnUse">
<stop stop-color="#28AAE0"/>
<stop offset="1" stop-color="#23B7EC"/>
</linearGradient>
</defs>
</svg>
