<svg width="32" height="32" viewBox="0 0 32 32" fill="none" xmlns="http://www.w3.org/2000/svg">
<path d="M8.60606 26.9242L9.10263 27.2C11.144 28.469 13.5164 29.2414 15.9992 29.2414C23.2268 29.2414 29.2406 23.2276 29.2406 15.8897C29.2406 8.55173 23.2268 2.75867 15.944 2.75867C8.66125 2.75867 2.75781 8.60692 2.75781 15.8897C2.75781 18.4276 3.47506 20.9104 4.79919 23.0069L5.13025 23.5035L3.86131 28.138L8.60606 26.9242Z" fill="#4ABA60"/>
<path d="M12.1054 10.0438L11.1986 10C10.9122 10 10.6259 10.0876 10.4349 10.2629C10.0054 10.6133 9.28944 11.2704 9.09852 12.1466C8.76443 13.4608 9.28944 15.0379 10.5304 16.6149C11.7714 18.192 14.1579 20.7328 18.358 21.828C19.6945 22.1784 20.7445 21.9594 21.6037 21.4775C22.2719 21.0833 22.7014 20.47 22.8447 19.8128L22.9878 19.1995C23.0356 19.0243 22.9401 18.8052 22.7492 18.7177L19.7422 17.4472C19.5513 17.3596 19.3126 17.4034 19.1695 17.5787L17.9762 18.9805C17.8807 19.0681 17.7376 19.1119 17.5944 19.0681C16.783 18.8052 14.0624 17.7539 12.5828 15.1255C12.535 14.9941 12.535 14.8626 12.6305 14.775L13.776 13.5922C13.8715 13.4608 13.9192 13.2856 13.8715 13.1541L12.4873 10.3067C12.4395 10.1752 12.2964 10.0438 12.1054 10.0438Z" fill="white"/>
</svg>
