<svg width="24" height="24" viewBox="0 0 24 24" fill="none" xmlns="http://www.w3.org/2000/svg">
<g clip-path="url(#clip0_1_4821)">
<path d="M21.1875 4.5H16.6875V3.5625C16.6875 2.01169 15.4258 0.75 13.875 0.75H10.125C8.57419 0.75 7.3125 2.01169 7.3125 3.5625V4.5H2.8125C1.26169 4.5 0 5.76169 0 7.3125V20.4375C0 21.9883 1.26169 23.25 2.8125 23.25H21.1875C22.7383 23.25 24 21.9883 24 20.4375V7.3125C24 5.76169 22.7383 4.5 21.1875 4.5ZM9.1875 3.5625C9.1875 3.04556 9.60806 2.625 10.125 2.625H13.875C14.3919 2.625 14.8125 3.04556 14.8125 3.5625V4.5H9.1875V3.5625ZM21.1875 21.375H2.8125C2.29556 21.375 1.875 20.9544 1.875 20.4375V12.9353C2.65889 13.525 3.63286 13.875 4.68708 13.875H9.1875V17.625H14.8125V13.875H19.313C20.3672 13.875 21.3412 13.525 22.125 12.9353V20.4375C22.125 20.9544 21.7044 21.375 21.1875 21.375ZM11.0625 13.875H12.9375V15.75H11.0625V13.875ZM19.313 12H4.68708C3.1365 12 1.875 10.7385 1.875 9.18792V9.1875V7.3125C1.875 6.79556 2.29556 6.375 2.8125 6.375H21.1875C21.7044 6.375 22.125 6.79556 22.125 7.3125V9.18797C22.125 10.7385 20.8635 12 19.313 12Z" fill="#2A79B2"/>
</g>
<defs>
<clipPath id="clip0_1_4821">
<rect width="24" height="24" fill="white"/>
</clipPath>
</defs>
</svg>
